<?xml version="1.0" encoding="UTF-8"?><svg id="Layer_2" xmlns="http://www.w3.org/2000/svg" xmlns:xlink="http://www.w3.org/1999/xlink" viewBox="0 0 182.3 172.38"><defs><style>.cls-1,.cls-2{fill:#010003;}.cls-3{fill:#fded50;}.cls-2{filter:url(#drop-shadow-1);}</style><filter id="drop-shadow-1" filterUnits="userSpaceOnUse"><feOffset dx="11" dy="11"/><feGaussianBlur result="blur" stdDeviation="3"/><feFlood flood-color="#7e838a" flood-opacity="1"/><feComposite in2="blur" operator="in"/><feComposite in="SourceGraphic"/></filter></defs><g id="windows_95"><path class="cls-2" d="M65.33,13.74L7.46,121.35c-7.31,13.59,2.53,30.06,17.96,30.06h115.75c15.43,0,25.27-16.47,17.96-30.06L101.26,13.74c-7.7-14.31-28.23-14.31-35.93,0Z"/><path class="cls-3" d="M60.33,10.74L2.46,118.35c-7.31,13.59,2.53,30.06,17.96,30.06h115.75c15.43,0,25.27-16.47,17.96-30.06L96.26,10.74c-7.7-14.31-28.23-14.31-35.93,0Z"/><path class="cls-1" d="M78.3,99.38c-9,0-13-48-13-48,0-7.18,4.82-13,12-13h0c7.18,0,12,5.82,12,13,0,0-3,48-11,48Z"/><circle class="cls-1" cx="77.3" cy="116.38" r="11"/></g></svg>