<?xml version="1.0" encoding="UTF-8"?><svg id="Layer_2" xmlns="http://www.w3.org/2000/svg" viewBox="0 0 588.13 227.79"><defs><style>.cls-1{fill:#6a6b6d;}.cls-2{fill:#6a6c6f;}.cls-3{fill:#808386;}.cls-4{fill:#68696c;}.cls-5{fill:#686969;}.cls-6{fill:#999a9b;}.cls-7{fill:#97989a;}.cls-8{fill:#8b8d8e;}.cls-9{fill:#929392;}.cls-10{fill:#9298a3;}.cls-11{fill:#92969b;}.cls-12{fill:#b8b9b9;}.cls-13{fill:#b3b4b3;}.cls-14{fill:#66676b;}.cls-15{fill:#66686b;}.cls-16{fill:#737678;}.cls-17{fill:#303135;}.cls-18{fill:#a4a4a0;}.cls-19{fill:#bcbdbd;}.cls-20{fill:#bcbebf;}.cls-21{fill:#a4a6a8;}.cls-22{fill:#cacac9;}.cls-23{fill:#c3c4c8;}.cls-24{fill:#c4c5c7;}.cls-25{fill:#acaeae;}.cls-26{fill:#d3d5d4;}.cls-27{fill:#c5c6c7;}.cls-28{fill:#e1e1e1;}.cls-29{fill:#a8abad;}.cls-30{fill:#232529;}.cls-31{fill:#0c0d0f;}.cls-32{fill:#23262a;}.cls-33{fill:#43464b;}.cls-34{fill:#141417;}.cls-35{fill:#101114;}.cls-36{fill:#36383c;}.cls-37{fill:#373a3f;}.cls-38{fill:#3e4044;}.cls-39{fill:#3f4247;}.cls-40{fill:#1a1c20;}.cls-41{fill:#9b9fa4;}.cls-42{fill:#9b9b9c;}.cls-43{fill:#706e6d;}.cls-44{fill:#95999d;}.cls-45{fill:#868789;}.cls-46{fill:#9a9a99;}.cls-47{fill:#898a8c;}.cls-48{fill:#6d747b;}.cls-49{fill:#808183;}.cls-50{fill:#626361;}.cls-51{fill:#292a2d;}.cls-52{fill:#292d33;}.cls-53{fill:#595b5f;}.cls-54{fill:#2b2d31;}.cls-55{fill:#56585c;}.cls-56{fill:#484a4e;}.cls-57{fill:#47494d;}.cls-58{fill:#3a3d42;}.cls-59{fill:#3b3c3e;}.cls-60{fill:#585958;}.cls-61{fill:#3c3e41;}.cls-62{fill:#2e3135;}.cls-63{fill:#4c4e52;}.cls-64{fill:#5d6065;}.cls-65{fill:#77787a;}.cls-66{fill:#5e6064;}.cls-67{fill:#787979;}.cls-68{fill:#78797b;}.cls-69{fill:#82878e;}.cls-70{fill:#828892;}.cls-71{fill:#313439;}.cls-72{fill:#28292c;}.cls-73{fill:#343539;}.cls-74{fill:#343433;}.cls-75{fill:#7b7c80;}.cls-76{fill:#4e4e50;}.cls-77{fill:#4e5054;}.cls-78{fill:#4e5053;}</style></defs><g id="Layer_7"><g><path class="cls-29" d="M283.98,175.52c-10.83,1.55-21.68,2.87-32.58,3.72-1.36,.11-2.74,0-4.11-.01,.48-1.98,2.25-1.68,3.58-1.84,6.97-.81,13.91-1.79,20.85-2.85,6.9-.55,13.47-2.97,20.34-3.67,2.43,.06,4.56-1.17,6.93-1.75-1.64-.15-3.08-.84-4.53-1.49-3.21-1.45-6.45-2.1-10.09-1.66-5.54,.66-11.17-.86-16.72,.18-5.79,1.09-11.69,.97-17.4,.5-12.18-.99-24.37,.06-36.53-.88-3.68-.29-7.7-.25-10.99,2.34,.4,1.38,2.69,1.66,2,3.32-.7,1.69-2.54,1.59-3.93,1.36-5.3-.89-10.98-.08-15.76-3.37,3.02-3.04,2.96-3.83-1.37-5.52-3.66-1.43-6.47-3.68-8.49-6.94-1.16-1.87-2.73-2.81-4.91-2.85-2.72-.05-5.36-.98-8.17-.54-2.23,.35-3.6-.99-3.73-3.18-.13-2.09,.5-4.54-1.97-5.54-3.02-1.22-6.22-1.78-9.48-.69-.23,.08-.48,.19-.65,.36-1.31,1.4-4.27,1.6-4.12,3.79,.12,1.79,2.69,1.81,4.21,2.56,.76,.38,2.22,.61,.91,2-2,.84-4.05,.58-6.1,.29-2.54-.62-5.16-.79-7.73-1.25-2.94-.53-5.68-1.33-8.43-2.7-5.13-2.56-10.95-3.21-16.47-4.66-9.27-2.43-18.78-3.81-28.11-6-5.35-1.26-10.76-2.11-16.29-1.21-1.2,.26-2.38,.75-3.64,.39-1.86-2.13,.05-3.28,1.45-3.41,6.89-.63,13.03-5.05,20.33-3.72,3.96,.72,7.53-1.45,10.96-3.04,1.93-.89,3.07-3.1,2.6-5.71-.82-4.5,.77-6.55,5.24-7.65,10.57-2.6,21.18-3.33,32.1-2.62,8.88,.58,17.4,2.83,26.13,3.94,.41,.05,.81,.14,1.2,.25,1.63,.53,3.35,.83,4.91,1.55,1.23,.57,2.57,1.16,1.88,2.99-1.19,.88-2.35,.44-3.51-.06-7.57-2.1-15.17-3.46-23.12-3.69-8.39-.24-16.06,1.32-23.41,5.1-.96,.49-2.38,.64-2.27,2.09,.09,1.29,1.32,1.73,2.34,2.17,4.57,2,9.14,3.91,14.16,4.67,5.39,.81,10.91,1.33,15.71,4.42,1.17,.75,2.65,.59,4.03,.62,6.86,.13,13.72-.22,20.57,.3,4.26,.32,8.27-1.45,12.44-2.04,5.7-.81,10.92,.75,16.24,1.56,3.64,.56,7.28,1.49,10.99,1.88,5.57,.58,11.21,.66,16.68,2.07,.46,.12,1,.05,1.66-.91-3.78-1.28-7.29-2.93-11.28-3-2.41-.04-4.74-.45-6.91-1.44-3.55-1.62-7.38-2.24-11.07-3.35-1.54-.46-3.61-.7-3.47-3.15,1.27-.98,2.6-.62,3.91-.14,3.77,1.37,7.71,1.98,11.65,2.53,1.23,.3,2.47,.55,3.69,.9,7.31,2.79,14.99,3.37,22.69,4.09,16.8,1.58,33.64,.14,50.44,.75,8.66,.31,16.96,2.58,24.95,5.9,2.08,.86,4.17,1.62,6.31,2.28,3.37,.9,6.58,2.14,9.12,4.67,1.83,1.36,3.47,2.96,5.39,4.21,.44,.31,.83,.68,1.17,1.08,2.13,3.85,1.72,5.19-1.91,7.07-1.56,.81-4.44,.99-4.13,2.99,.27,1.75,3.04,.7,4.65,1.15,.61,.17,1.19,.33,1.55,.9-.94,.76-2.07,.55-3.14,.66-8.92,1.35-18.03,1.36-26.76,4.01-3.29,1-6.73,1.42-9.94,2.72h0c-4.22,.87-8.56,1.11-12.74,2.19Z"/><path class="cls-53" d="M494.52,166.43c.19,.15,.5,.27,.56,.46,1.7,6.01,5.92,7.06,11.33,5.77-.49,2.26-2.49,2.18-4.01,2.19-2.78,.02-2.28,1.14-1.23,2.69,.9,2.22,2.97,3.65,3.85,5.89,.41,1.03,1.01,1.99,1.26,3.09,.48,2.14-.12,3.99-1.77,5.36-1.81,1.51-3.77,.6-5.1-.59-3.69-3.3-7.74-2.39-12.1-1.68,.26,1.92,1.68,2.79,2.84,3.76,5.13,4.3,10.18,8.7,15.6,12.66,1.22,.89,4.41,2.12,.61,4.04-5.13-2.45-9.65-5.8-13.59-9.85-1.13-1.16-3.09-1.16-3.62-2.94-.99-1.82-2.56-3.05-4.23-4.18-1.6-2.06-4.39-3.17-4.88-6.1,.14-.37,.76-.73,.76-.73-6.2-1.26-12.05-3.51-17.94-5.8-6.67-2.59-13.32-5.62-20.76-5.49-2.36,.04-4.15-1.61-6.31-2.19-7.47-2.02-14.47-5.28-21.46-8.5-5.34-2.47-10.93-4.16-16.56-5.76-4.04-1.14-7.91-.59-11.67,1.06-7.08,3.1-14.48,2.27-20.37-1.53-4.51-2.9-10.09-4.55-13.47-9.54-2.61-3.84-16.95-7.66-21.17-6.32,6.08,2.9,9.07,8.61,13.44,12.94,2.21,2.19,3.21,5.02,2,8.22-2.21,.95-2.33-.92-2.85-2.15-2.46-5.79-7.24-9.54-11.88-13.39-1.05-.87-2.41-1.22-3.81-1.25-2.71-.44-4.98-1.83-7.19-3.35-5.91-3.74-12.31-6.46-18.92-8.64-4.07-1.34-5.82-3.41-4.84-6.56,.68-2.17,2.1-3.33,4.42-3.22,4.91,.22,10.01-.45,14.15,3.26,.84,.75,2.07,.92,3.2,.82,4.99-.41,9.56,1.43,14.27,2.57,1.59,.38,3.09,1.02,4.37,2.04,5.87,4.65,12.45,8.17,19.09,11.54,3.55,1.81,7.59,2.3,11.42,3.34,5.91,.87,11.3,3.89,17.46,3.92,3.13,.01,6.22-.09,9.31-.42,8.58-.9,16.24,1.17,23.62,5.82,3.14,1.98,7.18,3.1,10.98,4.04,2.7,.66,4.64-.6,5.75-3.46,1.46-3.79,3.51-7.34,5.45-10.92,.61-1.12,1.5-2.2,.71-3.42-.94-1.46-2.5-.96-3.74-.51-3.94,1.44-7.95,1.98-12.13,1.71-2.14-.14-3.47-1-4.03-3.15-.53-2-.14-4.73-2.2-5.73-2.73-1.32-5.74-2.67-8.77-2.59-2.68,.07-4.41-2.47-7.32-1.81-.9,.21-.93-2.5-.78-4,.22-.97,.6-1.85,1.36-2.53,5.62,.02,11.2,.76,16.35,2.92,3.97,1.67,8.05,2.24,12.19,2.78,2.97,.38,5.46,1.61,7.73,3.45,.87,.71,1.66,1.57,2.69,2,4.47,1.86,6.52,4.74,4.61,9.7-.78,2.03,1.44,3.65,1.31,5.86,2.26-.49,4.36-1.18,6.32-2.45,2.15-1.4,4.58-2.16,7.12-1.21,7.47,2.77,15.23,5.15,18.93,13.32,.46,1.01,1.27,1.84,1.9,2.76,1.31,1.91,2.69,2.95,4.77,.86,.92-.93,2.18-1.15,3.48-.97,1.67-.15,1.86,2.19,3.51,2.09Z"/><path class="cls-57" d="M506.36,210.08c1.81-1.6,.5-2.26-.82-3.17-6.42-4.45-12.31-9.55-18.08-14.77-.87-.79-2.32-1.57-1.76-2.99,.59-1.49,2.18-.64,3.33-.85,4.1-.75,7.99-.83,11.3,2.48,.8,.8,2.3,1.99,3.63,.65,1.45-1.46,2.12-3.17,1.35-5.41-1.08-3.1-3.77-5.17-4.87-8.21,2.82,.05,5.24-.68,6.91-3.2,.54-.82,1.58-1.24,2.57-1.42,7.83-1.42,15.31-4.23,23.15-5.63,6.6-1.18,8.42,.34,9.67,6.77,.9,4.64,1.46,9.3,1.89,13.98,.08,2.08-2.17,2.51-3.2,4.43,6.45,.93,9.07,5.98,12.11,10.64,2.91,4.46,6.87,8.02,10.47,11.89-.17,1.47,.99,1.76,1.97,2.3,3.71,2.03,7.66,3.52,11.48,5.3,.93,.44,2.42,.51,2.35,1.96-.08,1.43-1.7,.98-3.02,1.75,.04-.01,.87,.24,.55-.14-.14-.16-.08-.3,.18-.31,3.26-.08,6.43-2.01,9.76-.43-2.95,2.05-6.47,1.81-9.71,1.92-17.71,.58-35.31-.02-51.92-7.26-6.68-2.91-13.38-5.85-19.26-10.28Z"/><path class="cls-32" d="M403.04,94.07c3.93,.47,7.01,2.95,10.35,4.67,12.34,6.32,24.65,12.74,35.87,20.98,4.91,3.6,9.63,7.46,14.44,11.2,.45,.56,1.19,1.17,.68,1.91-.61,.88-1.58,.47-2.38,.15-3.45-1.41-6.6-3.36-9.79-5.27-.33-.14-.63-.32-.93-.52-1.77-1.48-3.6-2.85-5.86-3.53-4.2-2.24-7.69-5.49-11.63-8.11-10.53-7-21.82-12.37-33.6-16.88-8.24-3.15-16.71-5.63-24.89-8.93-5.66-2.28-11.81-1.31-17.6-2.8-2.01-.52-4.2-.46-6.25-1.01-2.32-.62-4.77-1.06-7.03-.36-4.82,1.5-9.63,1.08-14.44,.38-6.63-.97-13.18-.08-19.73,.55-8.76,.84-17.39-.07-26.01-1.44-1.15-.18-2.18-.78-2.87-1.65-3.85-4.79-9.42-5.85-14.94-6.8-7.72-1.33-15.6-1.32-23.36-2.49-6-.9-12.04-1.05-17.66-4.2-3.76-2.11-8.58-1.09-12.8-2.09-6.35-1.5-12.58,.07-18.87,.35-2.79-.18-5.65,.55-8.34-.72-.88-2.54,1.23-2.9,2.72-3.34,7.98-2.33,16.14-2.61,24.41-2.21,7.04,.34,14.16,.8,21.07-1.3,3.38-1.03,6.51-.96,9.64,1.06,3.19,2.05,6.68,2.89,10.67,2.57,3.58-.29,7.02,1.56,10.31,2.89,7.42,2.99,15.02,4.46,22.99,4.16,1.25-.05,2.57-.15,3.72,.28,7.74,2.89,14.9,.36,22.07-2.19,5.46-1.84,11.2-2.23,16.8-3.31,1.47,.12,3.41-.78,3.79,1.73-.76,1.26-2.01,1.85-3.27,2.45-4.53,1.92-9.46,2.13-14.19,3.36,7.35-.19,14.2,2.67,21.43,3.29,12.83,1.09,25.09,5.06,37.62,7.7,8.16,1.72,15.62,5.22,23.25,8.31,1.49,.6,2.88,1.51,4.6,1.19Z"/><path class="cls-31" d="M330.39,67.04c-5.73,1.01-11.46,2.02-17.19,3.03-3.47,1-6.74-.03-9.69-1.56-3.84-2-7.08-3.74-12.08-2.62-4.71,1.06-10.15,.27-15.14-1.06-6.63-1.77-13.42-2.61-20.22-3.33-3.72-.4-7.41-.86-11.03-1.84-4.26-1.15-8.42-.24-12.52,.83-3.47,.9-6.77,1.07-10.19-.45-3-1.33-6.43,.21-9.57-.89-1.48-.52-3.34-.52-3.05-2.87,3.33-1.51,7.07,.39,10.39-1.26,4.62-.4,9.2-1.02,13.71-2.15,10.9-3.01,19.43-10.06,28.28-16.57,.73-.33,1.48-.48,1.88,.42,.42,.96-.18,1.69-.83,2.27-2.88,2.54-5.76,5.09-8.99,7.2-1,.65-2.07,1.18-3.14,2.03,3.43-2.06,6.6-4.2,9.77-6.35,1.33-.9,2.74-1.73,4.48-1.58,3.49,1.49,3.66,4.72,3.99,7.79,.45,4.15,.97,4.36,5.1,4.25,7.17-.18,14.3,.6,21.29,2.29,1.33,.32,2.65,.89,4,.81,6.22-.33,12.04,1.33,17.87,3.18,4.27,1.35,8.64,2.28,13.11,2.67,1.38,.12,3.09,.24,3.48,1.61,.48,1.69-1.19,2.5-2.45,3.31-.42,.27-.81,.57-1.24,.82Z"/><path class="cls-9" d="M63.77,136.61c4.89-1.64,9.81-.58,14.56,.36,8.25,1.64,16.44,3.55,24.73,5.09,6.29,1.17,12.75,2.51,18.6,4.82,6.34,2.49,12.75,4.1,19.3,5.48-3.45,2.38-7.02,.77-10.4,.04-10.09-2.18-19.91-5.43-29.9-8.01-1.83-.47-3.65-.79-5.53-.68-1.34,.08-2.55,.44-2.72,1.99-.29,2.65-1.99,3.19-4.28,3.17,5.85,.67,10.8,4.54,16.95,4.29,2.23-.09,4.27,3.35,4.5,6.15,.23,2.77-1.6,3.62-3.73,4.33-2.12,.71-4.24,1.46-6.04,2.69,5.93,.26,11.95-.53,17.94,.44,.53,.33,.98,.7,.63,1.42-5.48-.04-10.96-.1-16.44-.12-10.09-.03-20.16-.32-30.12-2.12,.66-.92,1.66-1.02,2.66-1.11,4.24-.38,8.18,1.41,12.37,1.21-6.39,.85-11.29-4.77-17.81-3.7-1.16,.19-2.23-.19-3.2-.81-3.62-2.34-7.72-2.85-11.84-2.8-8.34,.1-16.7-.59-25.03,.55-1.82,.25-3.8,.34-5.02-1.6,.42-2.06,2.16-1.76,3.55-1.85,14.32-.87,28.63-.36,42.95,.02,2,.05,3.94,.63,5.9,.98,.86,.15,1.79,.55,2.58,.31,7.31-2.13,14.77-.07,22.15-.95-8.62-1.43-17.15-3.14-25.55-5.49-6-1.68-12.04-3.14-17.67-5.91-2.36-1.16-4.66-1.84-6.41,1.2-.94,1.64-2.77,1.39-4.41,1.18-2.08-.73-4.1-.49-6.15,.22-1.48,.52-2.95,1.4-4.62,.72-.96-1.47-2.48-1.69-3.96-1.41-3.43,.65-6.91,.68-10.36,1.11-4.6,.58-7.32,3.69-10.43,6.41,.89,1.44,1.73,.67,2.46,.48,6.02-1.58,11.64-4.2,17.27-6.8,1.6-.74,3.24-1.43,4.85,.04,.18,.91-.42,1.45-1.08,1.73-7.81,3.33-15.26,7.65-23.71,9.28-3.31,.64-6.7,.66-8.84-2.79,.26-3.04,2.88-4.15,4.91-5.53,2.52-1.72,5.29-3.14,8.09-4.38,1.44-.64,1.85-1.84,2.64-2.88,6.94,.93,13.82,.73,20.66-.86,3.83-.89,7.75-1.46,10.89-3.23-1.86-1-4.33-1.35-6.97-.93-1.33,.21-2.73,.16-4-.49-.16-3.36,2.01-5.46,4.53-6.72,3.65-1.82,7.48-3.37,11.38-4.68,.83-.28,1.69-.43,2.57-.43,3.08,0,3.56,.92,2.49,3.87-.94,2.6-1.62,5.33,.33,7.87,.82,.43,1.58,.93,1.91,1.86,.43,1.19-.79,1.95-1.08,3.13,3.54,.73,6.81,.46,10.62,.18-1.7-.55-3.28,.17-4.06-1.35-.02-.89,.72-1.19,1.28-1.61,.88-.67,1.01-1.31,0-1.97-1.54-.83-3.59,.15-4.9-1.41Z"/><path class="cls-34" d="M209.71,56.27c2.37,2.89,5.72,2.19,8.79,2.24,.93,.02,2.05-.79,2.87-.17,4.46,3.36,9.12,1.75,13.59,.42,5.59-1.66,10.8,.25,16.15,.97,6.98,.94,14.07,1.42,20.91,2.99,6.09,1.4,12.16,2.06,18.34,2.4,.98,.05,1.99,.66,2.78-.21,2.32-2.57,4.53-1.27,6.56,.25,4.03,3.02,8.69,4.11,13.5,4.91-4.13,2.41-8.98,2.67-13.36,4.38-2.09,.81-3.94-1.13-6.04-1.49-7.35-1.23-14.96,.15-22.17-2.17-5.01-1.62-9.97-3.39-14.91-5.21-.81-.3-1.6-.99-2.43-.65-4.85,2.01-8.91-.59-12.55-2.81-2.69-1.64-4.86-1.27-7.24-.59-7.6,2.15-15.28,1.57-23.03,1.33-6.34-.2-12.84-.81-19.01,1.42-2.45,.89-5.73-.29-7.31,2.82,.09,1.13-.77,1.28-1.55,1.54-1.01,.18-2.02,.08-3.01-.12-1.46-.49-2.91-.51-4.35,.11-.8,.34-1.68,.88-2.49,.59-2.51-.89-4.64-1.2-6.1,1.78-.41,.84-1.78,.63-2.78,.49-7.97-1.14-15.77-.33-23.38,2.2-5.31,1.77-10.99,1.9-16.26,3.82-3.76,.85-7.35,2.28-11.07,3.26-1.32,.35-3.33,1.44-3.13-1.55,13.5-4.71,27.23-8.58,41.19-11.76,16.39-3.73,32.73-7.64,49.35-10.21,2.71-.42,5.44-.64,8.17-.95Z"/><path class="cls-30" d="M264.51,40.87c-3.57,2.21-7.17,4.36-10.69,6.64-1.67,1.08-3.34,1.92-5.53,1.65,4.98-3.14,9.61-6.69,14.02-10.53,1.22-1.06,1.98-1.76-.23-2.34,7.63-6.2,15.02-12.73,23.29-18.11,.54,.19,.93,.54,1.11,1.09-.2,2.3-2.11,3.27-3.63,4.45-3.94,3.03-7.74,6.22-11.54,9.41,5.97-4.62,11.67-9.59,17.9-13.86,6.36-4.35,13.25-7.82,20.07-11.4,1.38-.73,2.84-.83,4.35-.47,.59,.18,1.2,.23,1.8,.29,1.58,.15,3.39,.13,4,1.94,.62,1.82-.3,3.29-1.81,4.37-.65,.09-.99-.48-1.5-.71,.37,.36,.88,.61,.95,1.2-.56,1.42-1.78,2.36-2.57,3.62-2.83,4.5-4.7,9.16-4.11,14.68,.34,3.17,.18,6.42-.4,9.62-.75,4.15,.15,5.02,4.47,4.94,1.38-.03,2.68-.44,4.03-.62,.9,1.19,1.91,2.33,2.2,3.87-2.6,.09-5.2,.23-7.8,.21-2.26-.02-4.02,.63-5.59,2.39-2.94,3.3-5.93,3.58-9.49,.74-2.04-1.63-4-2.01-6.53-1.78-5.51,.51-10.95-.35-16.28-1.73-3.05-.79-6.71-5.49-7.02-8.51-.15-1.45,1.32-2.04,1.66-3.63-1.8,1.05-3.47,1.8-5.12,2.58Z"/><path class="cls-25" d="M46.49,146.33c2.06-.05,4.14,.92,4.98-2.63,.51-2.15,3.83-1.39,5.59-.56,13.57,6.36,28.08,9.06,42.68,11.59,1.57,.27,4.64-.26,4.46,1.95-.14,1.77-3.01,.87-4.64,.88-3.96,0-7.96,.5-11.87-.64-.46-.13-1.03-.16-1.48-.02-9.69,3.1-19.38-.3-29.05-.39-10.36-.1-20.69,.87-31.03,.37-.76-.04-1.49,.08-2.03,.72-6.21,3.79-12.85,5.7-20.16,4.58-1.35-.21-2.68-.54-3.72-1.54,.68-1.29,1.37-2.58,2.05-3.87,3.32,3.7,7.51,2.67,11.34,1.6,4.51-1.27,8.85-3.2,13.15-5.14,4.97-2.24,9.98-4.39,15.09-6.3,1.48-.55,2.99-1.28,4.65-.59Z"/><path class="cls-4" d="M19.57,138.04c1.77-5.13,4.45-9.76,7.65-14.1,2.66-1.15,4.26-3.73,6.8-5.04,5.96-3.06,11.84-6.2,18.54-7.66,4.82-1.04,9.32-3.19,13.81-5.41,4.75-2.35,9.7-4.43,14.65-6.41,1.15-.46,2.42-.62,3.36-1.52,.48-.35,.99-.65,1.54-.87,5.55-2.81,11.87-3.67,17.28-6.85,1.21-.71,2.59-.86,3.96-.95,1.52-.1,2.98-.41,4.19-1.38,4.42-3.55,9.33-3.67,14.46-2.1,2.23,.69,4.44,.3,6.67,.19,5.15-.26,10.31-.2,15.46-.41,3.87-.16,7.67-.14,11.29,1.76,2.1,1.11,4.62,1.03,6.97,1.09,7.6,.18,15.2,0,22.79,.06,4.95,.03,9.91-.14,14.86,.36,9.1,.91,17.88-.42,26.39-3.7,.74-.41,1.51-.73,2.34-.9,.86-.16,1.74-.22,2.6-.1,2.04,.26,3.59,.97,2.04,3.34-1.01,1.55-.54,2.13,1.08,2.54,3.26,.83,6.46,1.33,9.91,1.26,6.91-.14,13.81-.76,20.77,.18,10.14,1.37,20.39,.76,30.59,.86,1.67,.02,3.56-.49,4.77,1.32-.13,1.05-.95,1.33-1.79,1.59-4.83-.42-9.66,.47-14.49-.02-16.82,.12-33.62-1.19-50.45-.79-4.72,.04-9.51,.54-13.72-2.42-.71-.5-1.68-.56-2.54-.45-14.04,1.76-28.11,.07-42.16,.46-10.71,.29-21.37,.53-31.93-1.93-3.08-.72-6.45-.5-9.64,.3-6.7,.29-13.3,1.65-20,1.94-1.94,.09-3.31,1.66-5.12,2.15-1.34,.36-2.67,.6-4.04,.62-6.46,.07-12.55,1.65-18.08,4.94-2.85,1.7-6.03,2.39-9.05,3.46-7.76,2.75-15.05,6.58-22.71,9.52-4.88,1.87-10.2,2.28-14.98,4.59-8.32,4.03-14.39,10.54-19.81,17.74-1.34,1.78-1.57,4.14-1.6,6.44-.02,1.45-.49,2.92-2.32,2.72-2.22-.24-1.5-2.06-1.13-3.18,.36-1.07,.29-2.22,.8-3.22Z"/><path class="cls-62" d="M468,192.14c-2.05-.12-3.99-.64-5.79-1.64-2.15-.98-4.45-1.52-6.69-2.22-23.41-7.12-46.94-13.84-70.93-18.78-9.97-2.05-19.99-3.96-30.2-4.44-1.45-.78-3.06-.04-4.55-.49-.59-.24-1-.65-1.27-1.22-.43-5.02,2.94-7.98,7.81-6.97,4.22,.88,7.68,3.48,11.64,5,4.24,1.63,8.61,1.06,12.87,1.84,18.64,3.42,36.97,7.88,54.92,14.03,5.97,2.05,12.12,3.82,18.39,4.89,3.17,.54,6.02,1.56,8.43,3.69,3.74,3.3,8.09,4.23,12.9,3.43,2.27-.38,4.5-.39,6.52,.86,.91,.56,2.19,1.25,1.74,2.53-.38,1.09-1.65,.85-2.66,.7-4.41-.13-8.8-.48-13.15-1.21Z"/><path class="cls-8" d="M.21,160.63c7.73,1.91,15.02,.56,22.05-2.91,.51-.25,1.22-.09,1.83-.13,1.46,.94,3.13,.99,4.71,.73,8.8-1.48,17.65-.54,26.47-.61,4.02-.03,8.24,.29,11.54,3.29,.59,.54,1.19,.97,1.98,.46,2.06-1.34,4.48-.53,6.08,.17,4.18,1.81,8.22,3.8,12.87,4.32-5.36,1.58-10.63-.89-15.91,.01-9.3-.48-18.62,.44-27.93-.61-10.22-1.15-20.3,.47-30.34,2.34-4.62,.86-8.93,.03-12.19-3.79-.79-.93-1.82-1.81-1.16-3.27Z"/><path class="cls-40" d="M316.93,13.93c3.05-4.4,2.94-4.65-2.2-5.28-.55-.07-1.06-.51-1.58-.78-.11-1.17,.87-1.34,2.03-1.98-3.6,.8-6.41,2.35-9.3,3.63-3.05,1.35-6.08,2.77-8.87,4.6-2.7,1.77-5.73,2.92-8.33,4.84-.69,.51-1.49,.95-2.37,.27-.31-.35-.63-.7-.94-1.05,7.21-6.26,15.47-10.72,24.44-13.85,5.5-1.92,10.97-4.09,16.95-4.29,1.13-.04,2.21-.12,3.31,.18,2.99,.81,3.62,2.38,1.7,4.8-2.46,3.12-5.65,5.55-8.19,8.64-8.29,10.07-9.98,21.03-5.08,33.07-2.15,3.32-5.45,1.58-8.03,1.34-2.32-.22-2.26-2.92-1.71-4.91,1.23-4.42,.7-8.91,.65-13.36-.08-6.6,3.23-11.43,7.54-15.87h0Z"/><path class="cls-35" d="M403.04,94.07c-1.56,1.56-3.24,.42-4.47-.24-4.63-2.49-9.89-3.23-14.58-5.36-10.22-4.64-21.38-5.49-32.03-8.35-10.3-2.77-21.27-2.69-31.67-5.49-1.49-.4-2.93,.21-4.39,.57-1.01,.25-2.19,0-2.36-1.21-.19-1.3,.95-1.53,1.99-1.66,5.05-.59,10.03-1.49,14.89-3.02,3.07,2.93,4.17,2.49,6.11-2.46,.79-1.84,2.26-2.1,3.94-1.56,1.85,.6,2.99,1.53,.76,3.13-.91,.65-1.39,1.33-.83,2.43,.14,2.37,1.97,3.24,4.43,2.1,1.69-.78,2.63-2.57,4.39-3.28,.75-.07,1.4,.07,1.76,.83,.26,2.41-2.67,2.66-3.22,4.67,2.8-.45,4.35-2.84,6.7-3.83,6.39,2.72,12.88,5.25,19.15,8.22,9.89,4.68,19.64,9.67,29.45,14.52Z"/><path class="cls-69" d="M272,175.56c-7.76,1.36-15.57,2.36-23.41,3.07-.45,.04-.87,.39-1.3,.6-3.74,.02-7.48,.04-11.22,.06,.86-2.46,3.03-1.41,4.68-1.74,1.07-.21,2.7,.05,2.86-1.21,.21-1.63-1.58-1.6-2.69-1.94-7.71-2.4-15.41-2.63-23.09,.17-3.07,1.12-6.32,1.28-9.37,1.64,3.43-.03,7.13-.37,9.63,3.08-1.75-.01-3.5-.02-5.24-.03-3.5-.53-7.05-.39-10.56-.8-4.01-.75-8.04-1.38-12.14-1.07-2.37-.29-5.14,1.01-6.9-1.72,.03-2.83,2.25-2.59,4-2.64,4.22-.12,8.45,.04,12.68,0,1.87-.01,3.73-.06,5.47-.87,.58-.28,1.21-.43,1.85-.49,.99-.09,1.99-.12,2.98-.2,2.85-1.98,5.55-4.35,9.45-3.51,.42,0,.84,.03,1.26,.05,6.36-.59,12.62,.35,18.89,1.22,9.64,1.33,19.29,1.38,28.9-.3,2.48-.43,4.96-.54,7.42-.25,2.53,.3,3.91,1.6,2.7,4.35-1.9,1.87-4.7,1.28-6.84,2.52Z"/><path class="cls-40" d="M350.64,70.81c-.33-.6-.89-.73-1.5-.76-3.08-.77-5.93,1.3-8.99,.75-3.11-.75-1.79-1.83-.17-2.82,.59-.36,1.47-.22,1.85-1.01q-2.48-1.75-4.68,.09c-1.12,.93-2.33,1.39-3.75,.74-.61-1.81-1.96-.7-3.01-.76,1.12-1.3,2.23-2.61,3.3-3.86-1.08-1.94-2.76-.82-4.09-.94-5.84-.55-11.39-2.23-16.92-3.99-3.45-1.1-6.91-1.86-10.59-1.7-2.96,.13-5.9-.09-8.59-1.76-.85-.53-2.16-.47-3.25-.43-3.75,.14-7.42-.24-11.03-1.24-1.48-.41-2.9-.22-4.4,.13-5.11,1.19-6.27,.12-6.63-5.05-.2-2.82-.05-6.11-3.68-7.33,.78-2.11,3.22-2.16,4.54-3.64,.53-.6,1.53-1.15,2.27-.19,.67,.88-.23,1.58-.52,2.35-.41,1.09-3.02,1.53-1.84,2.61,2.28,2.09,1.22,6.28,5.16,7.21,6.3,1.48,12.58,2.93,19.07,1.61,1.73-.35,2.8,.23,3.98,1.31,4.37,4.02,6.26,3.91,10.05-.39,.92-1.04,1.91-2.17,3.45-1.86,3.32,.66,6.84-1.65,10.03,.71,6.38,8.98,16.18,12.8,25.74,16.96,1.7,.74,3.57,1.1,4.98,2.44,.23,.73-.09,.94-.77,.81Z"/><path class="cls-75" d="M19.57,138.04c.29,1.4-.2,2.68-.54,4.01-.21,.83-.27,1.88,1.03,1.92,.93,.03,1.39-.82,1.33-1.51-.71-8.75,6.05-12.85,11.02-18.18,6.53-7,15.02-9.55,23.88-11.59,3.12-.72,6.04-2.07,8.9-3.56,7.16-3.71,15.14-5.49,22.31-8.96,4.78-2.32,9.77-3.74,14.59-5.73,1.93-.8,3.93-.27,5.9-.42,.09,2.84-3.03,2.44-4.12,4.08-.87,.75-1.83,1.18-3,.93-.36-.09-.69-.24-1.01-.42-1.62-1.1-3.24-.38-4.6,.35-7.03,3.79-14.47,6.49-22.16,8.56-1.21,.33-2.29,.97-3.35,1.61-5.46,3.29-11.19,5.8-17.5,7.15-7.87,1.69-14.73,5.22-19.06,12.51-1.69,2.85-5.42,3.5-7.24,6.28-.23,.27-.49,.51-.74,.76-.84,.87-2.22,1.94-1.27,3.04,1.45,1.7,3.35,.43,5.03-.11,3.1-.64,5.97-2.82,9.37-1.36,2.47-.14,4.92,.14,7.4-.51,2.2-.57,3.55,1.69,5.8,2.49-10.14,5.07-20.62,5.82-31.29,5.52-1.13-.03-1.95-.3-2.14-1.54,0-1.91,.45-3.7,1.45-5.33Z"/><path class="cls-51" d="M111.01,79.19c.52,2.08,1.71,.97,2.85,.67,3.79-.99,7.33-2.91,11.35-3.07,1.55,.1,3.11-1.47,4.65,.05-2.72,3.35-6.79,4.01-10.54,5.35-3.16,1.13-6.64,.35-9.73,1.75-2.92,1.01-5.73,2.3-8.88,2.69-2.38,.3-4.4,1.81-6.15,3.37-2.72,2.41-5.64,4.45-8.75,6.3-1.64,.98-3.16,1.98-5.16,1.71-.92-.12-1.63,.39-2.43,.75-8.92,4.04-17.49,8.82-26.75,12.1-1.18,.42-2.39,.84-3.64,.75-1.69-.13-2.17-1.03-1.22-2.53,14.94-5.03,27.85-14.16,42.05-20.7,7.33-3.38,14.69-6.65,22.36-9.2Z"/><path class="cls-48" d="M218.08,179.28c-3.99-2.23-8.36-2.55-13.02-2.13,.8-2.27,2.5-1.58,3.65-1.73,7.21-.98,14.03-4.15,21.36-4.1,4.67,.03,9.22,1.47,13.67,2.92,.87,.28,1.86,.96,1.51,2.22-.37,1.32-1.24,1.98-2.7,2.13-2.17,.21-4.47-.76-6.5,.7-5.99,0-11.99,0-17.98,0Z"/><path class="cls-43" d="M170.13,205.32c-2.76-.27-5.05-1.84-7.59-2.72-.85-1.67-2.34-2.49-4.03-3.11-10.14-3.71-18.53-9.9-26.12-17.55-3.5-3.53-6.36-7.61-10.12-10.9-1.64-1.44-3.74-3.08-3.21-5.9,.72-.51,1.4-.16,2.09,.1,3.05,1.41,5.95,3.11,9,4.54,2.2,1.03,3.94,2.66,3.82,5.46-.05,1.03,.19,1.99,.97,2.72,3.71,3.48,6.57,7.77,10.6,10.94,.78,.62,1.48,1.48,2.45,1.67,6.46,1.28,12.02,4.55,17.63,7.76,3.36,1.92,7.24,1.6,10.86,2.42,2.63,.59,3.67-.53,3.69-3.01,.92-.31,1.72,.02,2.46,.5,1.34,.87,3.06,1.72,2.73,3.59-.33,1.9-2.29,1.5-3.67,1.78-2.61,.54-5.18,.05-7.74-.43-2.13-.39-4.17-.36-6.19,.7-.42-.03,.32,.45,.15-.02,1.38-.48,2.13,0,2.22,1.46Z"/><path class="cls-36" d="M544.61,188.3c-1.83-.98-1.41-3.1-1.39-4.36,.03-3.52-1.29-6.73-1.59-10.12-.44-4.92-2.46-6.62-7.39-5.58-4.7,.98-9.35,2.21-14,3.41-2.63,.68-5.15,1.62-7.91,1.92-1.85,.2-4.17,.41-5.16,2.46-1.62,3.33-3.81,3.77-6.74,1.78-.49-1.12-1.76-1.82-1.69-3.56,2.5-.5,5.43,.32,7.67-1.58,10.28-2.37,20.56-4.74,30.85-7.11,3.31-.76,6.69-.49,10.04-.51,.69,0,1.6-.22,1.83,.77,.22,.95-.2,1.72-1.05,2.18-1.53,.84-3.01,1.73-4.16,3.07-.82,3.17,.18,6.08,1.26,8.99,.03,2.76,1,5.59-.57,8.24Z"/><path class="cls-17" d="M451.74,126.93c3.9,.85,6.71,3.85,10.35,5.25,1.75,.67,2.2,.61,1.61-1.27,8.05,5.97,14.58,13.44,20.83,21.17,3.66,4.54,7.22,9.18,10,14.34-.29,.45-.08,1.84-1.19,.78-.67-.64-.84-1.75-1.85-2.14-1.26-.65-2.05-1.75-2.83-2.87-1.25-1.86-2.68-3.5-4.81-4.44-2.03-.9-2.95-2.89-4.22-4.54-1.87-2.83-5.02-4.62-6.74-7.41-3.2-5.18-8.28-7.84-13.05-11-1.65-1.09-3.36-2.13-4.82-3.49-.84-1.65-3.15-2.21-3.27-4.4Z"/><path class="cls-5" d="M170.13,205.32c-.02-1.29-2.56-.7-1.88-2.26,.63-1.44,2.2-1.5,3.57-1.27,3.62,.61,7.21,1.46,10.92,.72,.69-.14,1.64,.25,1.96-.62,.38-1.04-.55-1.62-1.25-2-1.18-.63-2.05-1.87-3.55-1.88-5.81-4.75-11.71-9.42-16.26-15.49-1.04-1.38-1.39-2.88-.57-4.5,1.76-.99,2.12,.73,2.76,1.57,.9,1.18,1.48,2.6,2.92,3.29,.78,1.03,1.57,2.06,2.35,3.09,.51,1.84,2.17,2.65,3.42,3.83,4.2,4.55,10.09,6.87,14.55,11.07,1.66,1.83,.79,5.18,3.74,6.24-6.84,1.69-13.49,.13-20.16-1.16-.85-.16-1.68-.43-2.52-.65Z"/><path class="cls-61" d="M46.6,109.1c-.13,1.81,.58,1.95,2.25,1.52,5.81-1.5,11.17-4.07,16.47-6.73,2.55-1.28,5.34-2.16,7.67-3.53,5.04-2.97,11.07-3.31,15.86-6.8,2.42-1.77,4.3-4.1,6.88-5.7,4.26-2.63,9.1-3.11,13.74-4.35,.06,.17,.13,.35,.19,.52-.78,2.93-3.08,4.44-5.58,5.57-6.16,2.77-12.55,5.02-18.55,8.16-.25,.25-.51,.49-.76,.74-9.04,2.78-17.51,6.92-26.01,10.97-4.28,2.04-9.03,2.62-13.45,4.23-1.84,.67-2.78-.5-2.46-2.47,1.14-.9,2.29-1.79,3.76-2.12Z"/><path class="cls-60" d="M119.22,165.11c-.01,1.43,1.12,2.17,1.91,3.09,9.78,11.53,19.99,22.58,33.97,29.23,1.55,.73,3.35,.92,4.93,1.6,1.48,.63,3.52,1.09,2.52,3.57-10.87-3.67-20.32-9.72-28.8-17.31-5.73-5.13-11.02-10.69-15.34-17.1-.2-.29-.4-.59-.6-.88-1.65-.71-2.68-1.98-3.21-3.65-.38-1.22-.63-2.42,1.18-2.71,1.76,.43,2.75,1.76,3.67,3.17,.11,.37,.04,.71-.22,1Z"/><path class="cls-76" d="M42.84,111.22c.68,1.76,1.47,2.31,3.65,1.64,8.53-2.62,16.58-6.16,24.52-10.26,4.14-2.14,8.92-3.59,13.76-4.12-3.55,2.64-7.84,3.99-11.81,5.55-5.15,2.02-9.8,5.1-15.17,6.59-7.82,2.17-15.6,4.49-22.68,8.71-2.04,1.22-3.6,2.96-5.61,4.17-.79,.48-1.36,1.03-2.27,.42,4.24-5.42,9.07-10.12,15.62-12.71Z"/><path class="cls-70" d="M206.1,172.6c-1.64,1.3-3.56,1.5-5.56,1.48-4.57-.03-9.14-.04-13.71,.01-1.25,.01-2.88-.54-3.21,1.52-1.5,1.38-3.25,.85-4.93,.6-4.15-.61-8.21-.29-12.19,1.08,0,.41-.01,.82-.02,1.23-2.87-1.92-2.74-4.74-2.29-7.66,3.34-1.2,6.73-1.4,10.27-.93,8.46,1.12,17.05,1.05,25.48,2.6,2.05,.38,4.12-1.19,6.16,.05Z"/><path class="cls-66" d="M164.11,171.1c.79,2.48,1.58,4.96,2.37,7.44,.75,1.45,1.51,2.9,2.26,4.35-1.86,.85-2.13-.97-2.91-1.81-.91-.99-1.63-2.16-2.43-3.26-2.44-3.12-4.2-6.68-6.63-9.83-1.45-1.87-1.45-4.6-2.37-6.89-.81-2.02,1.41-3.05,5.17-2.49,.53,.26,.96,.63,1.32,1.1,1.71,3.61,3.16,7.31,3.21,11.39Z"/><path class="cls-41" d="M166.5,177.3c3.66-2.6,7.79-3.04,12.02-2.24,1.71,.33,3.39,.46,5.1,.55,2.12,1.43,4.49,.41,6.73,.72,3.04,1.42,6.36,.43,9.48,1.11,.83,.18,1.74-.19,2.52,.37,3.5,.47,7.07,.39,10.48,1.44-14.01,.3-27.96-.69-41.89-1.92-1.47-.13-2.96-.02-4.44-.03Z"/><path class="cls-50" d="M46.49,146.33c-8.2,2.16-15.65,6.22-23.5,9.27-5.65,2.19-11.06,5.04-17.47,4.4-2.25-.23-3.56-.74-3.26-3.23,.05-.21,.12-.41,.21-.6,3.66,2.63,7.58,2.43,11.64,1.15,7.64-2.4,14.85-5.8,21.94-9.47,0,0,.01,0,.01,0,2.22-.68,4.42-1.48,6.68-1.99,1.22-.28,2.66-.85,3.75,.48Z"/><path class="cls-73" d="M587.25,225.7c-3.44,.26-6.84,1.28-10.38,.59,.33-1.12,1.9-.23,2.3-1.48-4.16-2.01-8.4-3.97-12.56-6.11-1.31-.68-3.57-.93-2.63-3.45,5.17,3.76,11.23,5.27,17.25,6.86,2.03,.54,4.15,.77,6.04,1.8,1.2,.66,1.05,1.21-.03,1.78Z"/><path class="cls-3" d="M349.91,164.16c1.49,.35,3.15-.19,4.49,.89-4.7,.04-9.39,.09-14.09,.13-.69,.36-1.44,.31-2.17,.26-1.03-.08-2.35,.48-2.85-.99-.42-1.23,.39-2.06,1.1-2.94,2.78-3.49,2.68-4.45-.73-7.64-.25-.25-.5-.5-.76-.75-1.23-1.02-2.7-1.82-3.2-3.51,.16-.34,.41-.59,.77-.73,5.45,2.71,9.62,6.68,11.33,12.62,.6,2.1,1.37,2.7,3.31,2.07,1.02-.2,1.87,.36,2.8,.58Z"/><path class="cls-24" d="M296.72,173.33c5.56-3.01,11.65-4.09,17.76-5.39,6.31-1.35,12.66-.49,18.94-1.35-4.9,1.82-10.17,1.55-15.21,2.67-7.11,1.58-14.2,3.34-21.48,4.06Z"/><path class="cls-44" d="M335.65,153.88c4.67,2.12,5.18,5.04,1.42,8.25-.68,.58-1.5,1.06-1.21,2.07,.33,1.12,1.38,.81,2.21,.87,.74,.05,1.49,.08,2.23,.12-1.14,.82-2.46,.71-3.75,.75-1.98-.06-3.96-.02-5.93-.21-.94-.09-2.05-.44-2.28-1.58-.24-1.2,.7-1.72,1.62-2.17,1.11-.55,2.19-1.15,3.32-1.65,4.51-1.99,4.55-2.05,2.37-6.44Z"/><path class="cls-32" d="M350.64,70.81c.26-.27,.51-.54,.77-.81,1.11,.21,2.2,.48,3.03,1.33-1.22,2.92-4.27,3.57-6.51,5.22-.62,.46-1.48,.23-1.94-.49-.46-.71,.17-1.16,.59-1.55,1.33-1.26,2.71-2.46,4.07-3.69Z"/><path class="cls-57" d="M468,192.14c4.6-.47,9.09,1.2,13.69,.66,1.26,.95,2.51-.12,3.76-.03,1.4,1.37,3.58,2.1,3.7,4.52-2.89-3.43-6.94-3.33-10.88-3.62-3.46-.25-6.97-.17-10.27-1.53Z"/><path class="cls-59" d="M192.81,207.13c-1.34-.12-2.68-.24-4.54-.41,2.1-1.99,2.34-3.7-.16-5.2-.32-.19,.64-.38,.95-.64,1.22,.89,2.58,1.65,3.63,2.71,1,1,1.28,2.32,.11,3.53Z"/><path class="cls-24" d="M283.98,175.52c4.03-1.98,8.38-2.14,12.74-2.19-4.12,1.48-8.38,2.12-12.74,2.19Z"/><path class="cls-34" d="M233.81,52.87c-4.39,1.85-8.96,2.54-13.71,2.15,4.52-1.05,9.08-1.81,13.71-2.15Z"/><path class="cls-57" d="M545.18,180.06c-1.8-2.8-2.9-5.7-1.26-8.99,.42,3,.84,5.99,1.26,8.99Z"/><path class="cls-39" d="M455.52,188.28c2.5-.07,4.76,.59,6.69,2.22-2.42-.18-4.61-1.02-6.69-2.22Z"/><path class="cls-67" d="M174.52,189.81c-1.8-.69-3.57-1.4-3.42-3.83,1.36,1.08,2.8,2.09,3.42,3.83Z"/><path class="cls-47" d="M137.2,89.52c3.5-1.33,7.22-1.22,10.65-.49,11.34,2.42,22.71,1.64,34.16,1.69,9,.04,18.09-.29,27.12,.59,3.24,.31,6.6-.37,9.89-.75,2.61-.31,4.93-.58,7.32,1.36,3.28,2.67,7.46,.86,11.22,1.34,6.53,.62,13.1,.55,19.62,1.22,9.52,.97,19.13-.12,28.63,1.38,2.43,.38,4.32,1.37,4.78,3.98,.46,2.63-1.08,4.38-3.16,5.41-4.34,2.16-8.75,4.16-13.88,3.52-3.22-.4-6.48,.27-9.67,.65-10.47,1.22-20.47-1.68-30.58-3.26-7.3-1.14-14.57-1.67-21.9-1.87-9.33-.26-18.66-.17-27.84-2.49-7.17-1.81-14.34,.06-21.48,.93-.68,.08-1.56,.37-1.48,1.34,.06,.7,.78,.9,1.33,1.16,6.85,3.22,13.41,6.93,20.02,10.6,9.06,5.04,19.05,8.32,29.18,11.04,11.55,3.1,23.39,4.58,35.03,7.14,1.82,.4,3.73,.14,5.6,.11,1.48-.01,2.96,.08,4.44-.01,1.07-.04,2.14-.03,3.21,0,5.41-.09,10.83,.1,16.24,.02,1.16,.03,2.29,.14,3.19,.98,.17,.51,.01,.88-.46,1.13-10.91,.09-21.84,.42-32.73-.04-10.08-.43-20.07-1.97-29.82-4.74-1.04-.11-2.2,.33-3-.74-9.52-2.01-18.49-5.94-28.22-7.42-5.64-.86-11.2-3.08-16.68-5.03-2.48-.88-5.03-1.12-7.51-1.79-.25,0-.5,0-.74,0-7.32-1.82-14.72-3.28-22.15-4.59-5.63-.99-11.23-2.15-16.95-2.51-1.41-.09-2.77-.7-3.07-2.28-.28-1.49,.99-2.17,1.99-2.87,2.28-1.58,4.87-2.56,7.54-3.16,7.41-1.69,14.41-4.67,21.71-6.72,.98-.27,2.67-.33,2.46-1.73-.21-1.38-1.83-.84-2.88-.98-1.73-.22-3.46-.46-5.18,.08-2.06,.29-4-.06-5.8-1.1-.34-.32-.39-.68-.14-1.07Z"/><path class="cls-6" d="M143.19,91c2.94-1.47,5.86-.38,8.75,.19,.68,.13,1.71,.69,1.58,1.81-.11,.95-1.02,.97-1.69,1.2-4.32,1.47-8.62,2.99-12.97,4.36-4.96,1.56-10,2.87-14.93,4.51-2.26,.75-5.67,1.6-5.58,4.02,.09,2.54,3.74,1.6,5.42,1.56,5.05-.12,10,1.06,14.53,2.36,7.09,2.03,14.73,1.89,21.39,5.43-3.05-.49-6.15-.78-9.14-1.51-7.23-1.76-14.58-1.96-21.95-2.34-6.39-.33-12.71-.75-18.96,.88-2.63,.68-5.17,1.44-7.95,1.65-4.55,.34-5.68,2.54-4.34,7.12,.54,1.83-2.23,6.38-4.34,6.93-4.93,1.27-9.65,3.81-15.06,2.31-1.68-.47-3.41,.16-5.03,.97-2.54,1.27-5.12,2.19-8.15,2.05-2.9-.13-3.92,.99-3.88,2.95,.14,.15,.21,.31,.2,.48-.01,.18-.04,.27-.08,.27-.23,.21-.47,.23-.72,.06-1.1-.07-2.19-.15-3.71-.25,1.36-1.67,2.15-3.17,1.34-5.16-.39-.95-.2-2.19,.58-3.17,.5-.64,1.66-1.17,1.13-2.11-.66-1.18-2.09-.78-3.04-.56-4.94,1.16-9.53,3.34-14.04,5.55-1.72,.84-2.13,3.75-4.18,4.86-3.24,.75-6.49,1.5-9.73,2.25-.32,.15-.62,.4-1.01,.33-1.33-.23-3.04,.79-3.9-.91-.79-1.55,.42-2.71,1.17-3.91h0c.3-.23,.63-.32,1-.25,3.35,1.62,6.29,1.67,9.63-.72,6.81-4.85,14.55-7.93,22.49-10.5,2.83-.91,5.51-2.18,8.4-4.36-2.56-.72-4.53-.45-6.5,.16-3.44,1.07-6.86,2.15-10.1,3.78-1.47,.74-3.07,1.83-4.87,.62-.03-1.9,1.54-2.4,2.81-3.09,3.94-2.16,8.2-3.57,12.44-4.97,3.62-1.19,6.93-2.76,9.32-5.82,2.36-3.03,6.07-3.18,9.28-4.28,5.39-1.86,10.61-4.09,15.81-6.43,1.82-.82,3.72-2.25,5.94-.86l-.02,.04c.23,2.18-1.38,2.7-2.94,3.09-2.56,.64-4.86,1.82-7.99,3.45,5.89,.44,10.85-1.01,15.88-1.04,3.53-.02,7.29,0,9.84-3.3,.3-.39,.88-.55,1.37-.51,6.99,.57,13.3-2.53,19.98-3.62,3.51-.57,4.67-3.36,6.54-5.56Z"/><path class="cls-8" d="M119.22,165.11c-.04-.24-.05-.48-.05-.72,5.83-5.02,5.61-6.32-1.56-9.14-1.35-.53-2.68-1.28-4.5-.86,.85,2.48,3.96,3.96,3.09,7.03-1.55,.12-1.39,.97-.81,1.95,.78,1.33,1.6,2.63,2.4,3.94-7.03,0-14.06,0-21.09,0-.06-.25-.11-.5-.17-.75,3.16-1.39,6.24-3.01,9.5-4.09,1.94-.65,3.51-1.43,2.58-3.44-.88-1.91-.7-5.45-3.92-5.05-6.55,.81-11.61-4.2-17.91-4.1-.61,0-1.68-.37-1.56-1.28,.12-.99,1.19-1.43,1.99-1.19,3.06,.92,4.87,.86,4.01-3.28-.24-1.14,1.76-1.37,3-1.49,4.59-.45,8.8,1.28,13.08,2.4,8.35,2.2,16.56,4.93,24.96,6.88,2.71,.63,5.76,1.14,8.7,.42,2.23,.02,4.46,.03,6.69,.05,1.85,2.17,.03,2.71-1.51,3.03-2.41,.51-4.88,.22-7.32,.23-.99-.02-1.99-.18-2.97,.09-1.74,.49-2.34,1.74-1.18,3.06,1.6,1.84,2.42,3.7,1.8,6.1-.04,.17,.02,.33,.06,.36,3.94,3.27,4.72,8.97,9.18,11.84,2.05,1.32,3.41,1.04,4.98-1.05,2.4-3.2,1.98-6.75,2.13-10.29,1.63-.44,2.65,.53,3.4,1.69,1.02,1.57,2.19,3.02,3.19,4.61,2.81,4.46,2.83,4.7-1.18,8.34-1.08,.98-1.77,2.02-1.76,3.53,.03,3.23-2.51,3.84-4.84,4.85-2.3,1-4.25,.67-5.76-1.09-2.3-2.67-5.19-4.66-7.61-7.17-1.13-1.18-2.12-2.41-2.7-3.98-2.54-6.86-7.55-10.38-14.83-10.73-.5-.25-1.01-.49-1.51-.74Z"/><path class="cls-12" d="M197.1,127.69c1.5,2.22,4.11,2.1,6.26,2.87,8.35,3.01,17.28,3.75,25.72,6.44,1.07,.34,3.45,.18,2.67,2.14-.49,1.23-2.33,2.23-4.17,1.49-6.35-2.53-13.17-1.63-19.74-2.69-5.19-.84-10.26-2.24-15.47-2.99-1.6-.23-3.16-.67-4.76-.43-4.51,.68-8.99,1.96-13.51,2.12-8.66,.31-17.43,.71-25.98-.34-4.07-.5-8.03-3.62-12.46-4.05-6.91-.67-13.3-2.81-19.55-5.67-1.64-.75-2.9-1.54-2.79-3.43,.1-1.78,1.8-1.64,2.96-2.26,4.75-2.54,9.78-4.56,15.06-5.04,8.61-.78,17.3-.66,25.76,1.65,2.36,.64,4.96,.42,7.07,1.95-3.57,1.79-7.3,1.36-10.83,.22-5.16-1.67-10.11-2.12-15.22,.21-2.24,1.02-4.86,.98-7.31,1.42-1.35,.24-2.97,.52-3.16,2.12-.19,1.61,1.51,1.75,2.59,2.19,1.84,.76,3.67,1.61,5.66,1.86,4.24,.53,8.17,1.63,11.8,4.13,2.49,1.72,5.47,2.13,8.46,.34,2.1-1.26,4.62-.7,6.97-.73,.58,.02,1.14,.1,1.71,.2,4.96,1.05,9.9-.14,14.85-.12,5.28,.02,10.56-1.77,15.87-.06-2.99-1.87-6.35-2.56-9.68-3.33-5.36-1.24-10.49-3.15-15.5-5.38-1.06-.47-2.82-.62-2.35-2.61,1.94-1.13,3.85-.53,5.71,.19,6.68,2.56,13.76,3.77,20.51,6.06,1.05,.36,2.17,.56,2.86,1.56Z"/><path class="cls-20" d="M327.42,150.88c1.25,.57,2.48,1.18,3.38,2.27,1.59,1.94,1.8,3.51-1,4.54-3.57,1.3-6.57,4.13-10.73,3.86-.53-.03-1.42,.4-1.59,.84-1.81,4.45-3.8,2.75-6.45,.63-2.06-1.65-5.2-.66-7.12,.12-3.5,1.43-6.9,.68-10.17,.56-5.64-.2-11.25-1.5-16.86-2.44-1.75-.29-2.27-1.45-1.29-3.01,.47-.75,.9-1.44,.87-2.39-.13-4.3-1.76-5.4-6.05-4.9-4.67,.55-8.5,3.2-12.83,4.58-1.95,.62-3.62,.72-5.33-.33-1.38-.85-2.33-1.98-1.8-3.7,.5-1.6,1.28-3.07,3.36-2.85,2.83,.3,3.89-.77,4.09-3.75,.25-3.7,6.43-7.29,10.41-6.6,6.5,1.13,13.01,.56,19.52,0,2.31-.2,4.58-.47,6.86,.91,3.08,1.87,7.2,.37,10.26,2.69-3.23,1.85-6.62,1.58-10.08,.86-2.34-.49-4.92-1.24-4.75,2.78,.04,.86-.66,1.79-1.45,2.06-3.63,1.23-2.5,3.21-1.24,5.58,.86,1.62,1.24,3.47,2.49,4.95,1.36,1.61,2.79,2.12,5.05,2.28,4.83,.35,9.62-.42,14.41,.03,1.68,.33,3.35,.5,5.02-.05,4.79,.03,8.49-2.91,12.63-4.64,.93-.39,.94-.96,.61-1.76-.41-1-1.14-1.99-.23-3.09Z"/><path class="cls-23" d="M137.99,154.65c2.55,0,5.11,.05,7.66,0,1.37-.03,2.94-.07,2.01-2.24-2.02-.8-4.07-1.53-6.05-2.43-1.66-.76-1.73-1.96-.56-3.28,3.32-3.73,11.74-5.39,16.07-2.92,1.93,1.1,2.9,2.98,2.26,5.41-.73,2.79,.19,3.99,3.25,3.35,3.36-.71,6.6,.8,9.96,.85,1.52,.03,2.45,1.39,3.25,2.78,1.76,3.07,4.08,5.59,7.69,6.6,1.04,.29,2.02,.92,2.94,1.52,1.3,.86,3.29,1.64,2.68,3.5-.57,1.73-2.62,.83-4.02,1.05-1.85,1.14-3.66,.28-5.35-.3-2.69-.93-5.25-2.25-8.12-2.63-.49-.06-.09,.23-.33-.11-2.67-3.77-7.15-4.19-10.9-5.95-.27-.24-.55-.48-.82-.72-1.15-.87-2.52-.12-3.74-.51-2.83-.48-5.26-.58-7.71,1.87-2.76,2.76-5.77,1.93-8.27-1.41-.61-.81-1.46-1.34-2.14-2.06-.82-.86-1.05-1.7,.24-2.37Z"/><path class="cls-19" d="M163.42,132.17c-3.16,.12-6.08,.12-9.22,1.83-2.67,1.45-6.34-.45-8.89-2.5-1.97-1.58-3.93-2.28-6.43-2.4-3.61-.17-6.94-1.7-10.31-2.94-1.25-.46-2.98-1.03-2.93-2.42,.05-1.44,1.69-3.07,2.88-3.1,6.95-.2,13.31-4.98,20.27-3.2,5.12,1.3,10.12,2.34,15.38,2.02,.94,.52,1.91,.88,3.01,.72,.26-.23,.5-.21,.72,.06,7.44,4.07,15.59,6.09,23.72,8.13,1.98,.5,3.64,1.52,5.45,2.32,.55,.24,1.21,.57,1.01,1.32-.18,.69-.99,1.09-1.47,.8-4.7-2.82-9.72-.42-14.56-.81-2.57-.2-5.45,.24-8.15,.61-3.05,.43-6.03,.54-8.98-.43,.61-2.84,3.02-3.22,5.25-3.82,1.29-.34,2.71,.18,4.74-.88-5.77-2.3-10.26-6.38-16.58-5.34-1.29,.21-2.45-.24-3.64-.58-3.38-.97-6.82-1.35-10.33-1.07-2.11,.17-3.54,1.23-3.91,3.35-.4,2.28,1.5,2.41,2.96,3.07,4.95,2.21,10.05,3.4,15.52,3.17,1.67-.07,3.8-.26,4.5,2.11Z"/><path class="cls-10" d="M160.43,159.85c2.03,.26,4.07,.48,6.08,.8,.71,.11,1.66,.28,2.02,.77,4.1,5.72,10.91,5.32,16.6,7.42,6.11,2.36,12.46,2.98,19.42,2.9-.96-2.12-2.95-2.08-3.94-3.32,3.29-4.14,8.37-4.12,12.53-3.78,8.98,.73,17.92,.06,26.86,.45,5.65,.25,11.3,.73,16.94,.68,5.67-.05,11.37-1.2,16.99-.82,7.81,.53,16.1-2.2,23.38,2.93,1.45,1.03,3.67-1.18,5.32,1.17-3.51,1.3-6.81,2.51-10.4,2.76,.11-3.07-2-3.64-4.38-3.78-9.28-.53-18.52-1.27-27.83,.22-6.55,1.05-13.15-.48-19.74-.7-6.35-.21-12.67,.22-19,.12-2.71-.05-5.32-.71-8.13-.46-3.71,.33-5.64,1.54-5.55,5.35-.5,0-1,.02-1.49,.03-11.68,.43-23.28-.58-34.84-2.07-2.44-.31-4.65,1.89-7.15,.57-1.8-3.56-2.37-7.53-3.68-11.25Z"/><path class="cls-27" d="M327.42,150.88c.07,.36,.03,.8,.22,1.08,1.83,2.7,2.91,3.9-1.9,5.4-3.57,1.11-7.11,3.24-11.04,4-.94-2.83,1.38-3.24,3.06-4.08,1.63-.81,4.42-.61,3.52-3.66-.73-2.46-3.45-3.53-6.29-2.75-3.03,.84-5.64,.16-7.84-2.14-.94-.98-1.52-2.29-3.04-3.17-1.28,2.57-3.6,3.76-6.23,4.63-1.73,.58-3.81,1.3-3.6,3.68,.23,2.56,2.28,3.33,4.5,3.71,3.19,.54,6.43,.89,9.41,2.27,.65,.3,1.48,.47,1.26,1.5-4.41-1.04-8.81,1.33-13.4-.29-1.71-.6-4.14,1.53-5.99-1.28-1.29-1.96-3.1-3.51-3.27-6.07-.04-.58-.38-1.23-.78-1.67-1.98-2.19-3.4-4.01,1.26-4.5,1.06-.11,2.77-1.31,2.08-2.95-1.65-3.89,1.89-3.58,3.18-3.23,4.17,1.12,8.27,.88,12.43,.53,0,0,0,0,0,0,1.59,.62,3.07,1.35,4.39,2.52,2,1.78,4.33,2.59,7.13,2.03,2.41-.48,4.84-.02,7.2,.69,1.53,.97,2.78,2.22,3.74,3.75Z"/><path class="cls-11" d="M207.59,172.57c-.17-.59-.24-1.25-.54-1.76-1.79-3.04-.26-3.8,2.56-4.26,5.32-.88,10.59,.15,15.88,.08,8.51-.12,17-.36,25.53,.58,7.02,.78,14.11-.2,21.1-1.3,2.94-.46,5.73,.31,8.47,.81,3.63,.66,7.31-.65,10.89,.93,3.48,1.53,3.62,1.58,.74,4.17-6.74,1.25-13.49,2.49-20.23,3.74,1.6-1.81,4.01-1.45,6-2.23,.88-.63,2.26-1.03,1.99-2.39-.24-1.26-1.57-1.43-2.65-1.72-4.11-1.1-8.16,.02-12.2,.48-8.92,1.01-17.73,.91-26.66-.41-5.93-.87-12.07-1.55-18.14-.44h-.37s-.37,0-.37,0c-5.29-.9-6.65-.33-9,3.74-1,0-1.99,0-2.99,0Z"/><path class="cls-7" d="M167.9,120.22c-.24-.02-.48-.04-.72-.06-1.13-3.28-4.81-1.92-6.77-3.71,6.13-.47,11.6,2.13,17.26,3.8,5.37,1.59,10.99,2.32,16.27,3.91,6.34,1.91,13,3.19,18.88,6.54-4.2-.01-8.25-.89-12.15-2.39-1.19-.46-2.34-.66-3.58-.61-7.18-1.62-14.23-3.72-21.24-5.98-2.6-.84-5.14-1.9-7.96-1.5Z"/><path class="cls-7" d="M215.83,131.43c5.9-.05,11.38,2.23,17.13,3.03,7.26,1.01,14.54,1.53,21.87,1.47,7.97-.07,15.95-.02,23.92-.03,5.4-2.02,10.96-1.08,16.43-.62,4.66,.39,9.26,1.46,13.79,2.66,.4,.06,.8,.16,1.18,.31,2.86,1.49,5.87,2.65,8.8,3.99,1.14,.52,2.83,.68,2.48,2.65-3.83-.15-7.06-2.2-10.5-3.49-8.6-3.24-17.39-4.94-26.56-4.74-9.83,.22-19.69,.29-29.5,.15-12.83-.18-25.77-.54-38.16-4.72-.33-.11-.59-.43-.88-.66Z"/><path class="cls-20" d="M323.67,147.14c-2.91,.23-5.79-.3-8.79,.52-2.09,.58-4.55-.82-6.34-2.54-1.16-1.11-2.39-2.15-3.59-3.22,3.24-.75,5.72,1.46,8.46,2.4,3.38,1.16,7.19,.7,10.26,2.84Z"/><path class="cls-3" d="M321.43,144.89c-1.95-2.31-5.02-2.38-7.45-3.73-1.28-.71-2.8-1.04-3.79-2.24,1.64-1.18,2.9,.05,4.33,.59,2.38,.89,4.57,2.19,6.91,3.14,2.16,1.18,3.85,3.4,6.71,3.01,1.35,1.14,4,.95,3.8,3.69l-.07,.1c-.75,.47-1.48,.46-2.2-.06-2.38-2.17-5.25-3.43-8.24-4.48Z"/><path class="cls-16" d="M60.83,138.19c0-.25,.02-.49,.04-.74,.88-.6,1.85-.87,2.9-.84,1.94,.47,4.19-.94,5.9,.96-2.89,1.05-5.79,2-8.84,.61Z"/><path class="cls-44" d="M329.67,149.38c.73,.02,1.47,.04,2.2,.06,1.01,1.23,2.02,2.47,3.03,3.7-2.36-.39-3.39-2.64-5.23-3.76Z"/><path class="cls-2" d="M259.26,135.15c-.99,0-1.99,0-2.98,0-7.03-3.29-14.7-4.63-22.13-6.44-4.65-1.13-9.44-1.72-13.94-3.55-1.28-.52-2.41-.04-3.57,.53-1.73,.85-3.42,.79-4.75-.78-1.43-1.68-.76-3.66,1.43-3.77,9.48-.5,18.91-1.96,28.49-.95,3.27,.35,6.35,.81,9.34,2.03,2.45,1,4.64,.67,7.17-.26,4.51-1.65,9.52-1.34,14.13-3,2.15-.78,4.21-1.34,5.71-3.24,1.41-1.79,3.51-2.26,5.68-2.44,1.37-.11,2.79,.12,4.1-.3,2.63-.85,4.56-.56,5.64,2.38,.61,1.68,2.21,2.08,3.92,2.41,6.28,1.18,12.61,1.69,18.97,1.4,4.81-.22,8.87,2.29,13.33,3.3,.47,.11,.04-.2,.32,.17,4.08,5.48,10.87,6.91,16.04,10.76,.31,.22,.6,.46,.88,.72,1.39,1.48,3.37,1.5,5.13,2.03,7,2.12,14.06,4.09,21.19,5.64,3.79,.82,7.91-.54,11.82,.78,1.04,.35,2-.33,1.71-1.71-.72-3.38-1.49-6.45-4.24-9.23-2.68-2.71-5.14-6.68-8.1-8.07-5.63-2.65-8.8-10.27-17.18-7.98-4.66,1.27-9.8-1.12-14.66-2.04-5.57-1.05-11.12-.6-16.68-.88-.37-.02-.79,.16-1.11,.04-4.99-1.82-10.34-2.43-15.27-4.38-2.6-1.03-2.63-2.44-.67-4.57,2.97-3.23,2.21-5.62-2.03-6.93-1.47-.45-3.71,.4-4.24-2.06,.32-.61,.89-.75,1.51-.77,.97-.97,2.18-.95,3.41-.82,2.08,.48,4.11,1.11,5.81,2.48,1.73,1.28,1.95,3.3,2.56,5.14,.6,1.22,1.66,1.94,2.83,2.53,1.68,.7,2.41,2.26,3.32,3.66,1.36,1.44,3.25,1.66,5.01,2.18,2.57,.48,5.13,.52,7.67-.13,.38-.11,.76-.18,1.15-.23,5.64-.53,11.01,1.31,16.46,2.13,2.88,.43,5.34-.18,7.99-.53,.56-.07,.5-.04,.35-.66-.49-1.97-.12-3.8,2.29-4.2,2.28-.38,5.14,1.52,5.67,3.76,.38,1.59,.61,3.18,2.17,4.1,1.73,1.47,3.95,1.43,5.99,1.87,4.58,.97,7.63,3.44,8.7,8.14,.36,1.57,.86,3.11,1.99,4.38,3.62,4.07,6.86,4.39,11.3,1.05,1.24-.93,2.27-2.56,4.16-1.16v4.46c2-2.69,3.53-3.21,4.33,.08,.04,.18,.44,.46,.57,.41,3.2-1.16,5.83,1.62,8.56,1.47,3.26-.19,4.36,1.63,5.08,3.68,.71,2.01-.05,5.33,1.91,5.99,2.94,.99,6.38,.77,9.57-.05,2.04-.53,4.01-1.35,6.08-1.74,1.1-.21,2.8-.67,3.32,.8,.57,1.6,.58,3.33-.66,4.93-2.51,3.22-4.21,6.98-5.69,10.7-1.7,4.26-6.79,6.43-10.31,3.44-1.78-1.51-3.48-2.19-5.71-2.02-.59,.05-1.59,0-1.76-.34-1.93-3.85-6.32-3.27-9.33-5.21-3.74-2.43-8.55-2.15-12.48-1.55-9.25,1.41-17.9,.17-26.49-2.98-.68-.25-1.46-.25-2.19-.37-1.39-1.33-2.98-2.15-4.97-2.27-3.44-.22-6.5-1.5-9.19-3.65-6.53-5.22-13.81-9.2-21.37-12.7-.46-.21-1.02-.38-1.24-.79-2.28-4.33-6.63-4.31-10.61-5.15-8.45-1.8-17.07-1.69-25.59-2.55-8.64-.87-15.58,3.06-23.13,5.49-.68,.22-1.44,.3-2.24,.92,3.8,2.54,8.06,3.88,12.31,3.58,5.95-.42,11.64,1.06,17.46,1.42,1.11,.07,3.94-.43,3.1,2.6-3.83,.49-7.51-1.23-11.34-.79-3.31-.59-6.62-.43-9.94-.13-.82,.15-1.64,.34-2.4-.19-.99-.01-1.99-.02-2.98-.04-5.5-1.1-10.99-1.44-16.49,0Z"/><path class="cls-55" d="M489.21,162.08c1.29,.59,1.61,1.92,2.27,2.99-1.69-.09-3.18,.17-4.26,1.72-1.43,2.06-2.59,1.4-4.1-.21-3.21-3.42-4.3-8.33-8.41-11.17-4.46-3.09-9.42-4.86-14.46-6.57-.23-.08-.51-.14-.73-.08-4.23,1.04-7.65,3.78-11.84,5.2,.3-1.62,.19-3.46-1.21-5.02-1.37-1.51-.46-3.01,.23-4.49,1.24-2.68,.12-4.92-2.17-5.93-2.24-.98-3.96-2.46-5.86-3.82-3.71-2.65-7.84-3.91-12.45-2.91-.35,.08-.86,.23-1.06,.07-6.22-5.15-14.34-3.94-21.35-6.42-.23-.35-.28-.73-.16-1.13,2.36-3.98,1.87-7.94-2.19-10.01-7.53-3.84-14.54-8.53-21.87-12.68-3.63-2.05-7.6-2.13-11.49-2.78-1.47-.25-3.01-.26-4.35-.95-8.32-4.26-17.35-3.3-26.19-3.48-3.84-.08-7.68-.3-11.53-.26-.98,.01-2.01-.2-2.5-1.29,.08-.44,.3-.76,.68-.98,3-1.23,6.14-.33,9.2-.48,8.9-.45,17.79,.44,26.67,1.02,.49,.03,1,.15,1.43,.4,4.31,2.46,9.01,3.33,13.9,3.41,6.17,2.64,12.65,4.74,18.54,7.86,7.02,3.72,15.06,5.58,20.87,11.77,2.68,2.86,6.37,4.89,10.8,5.35,6.79,.7,12.98,3.34,18.48,7.49,1.44,1.09,2.68,2.11,2.66,4.18-.01,2.39,1.48,4.24,3.53,4.83,4.57,1.31,8.21,4.24,11.98,6.73,5.05,3.35,11.49,4.52,15.37,9.68,2.4,3.25,4.73,6.57,9.38,6.75,.85,.03,1.56,.64,2.21,1.22Z"/><path class="cls-4" d="M403.8,124.69c0,.25,0,.5,0,.75-.25,.75-.5,1.5-.75,2.25-3.06,.01-4.24,3.08-6.69,4.14-.87,.38-1.56,1.39-2.63,.86-3.6-1.78-7.88-2.98-8.65-7.77-1.03-6.43-5.32-8.7-11.13-9.18-1.29-.11-2.49-.15-3.1-1.52-1.87-1.38-2.56-2.98-1.06-5.07,.71-1,.79-1.94-.7-2.16-4.35-.64-7.58-3.85-11.87-4.89-3.78-.92-7.91-.92-11.39-3.14-.8-.51-2.1-.27-2.84,.39-3.31,2.95-7.63,1.03-10.65,2.52,1.66,.03,3.88,.74,6.13,0,.33-.11,.9,0,1.04,.28,1.58,3.15,4.6,3.96,7.6,4.97,.94,.31,1.82,1.53,1.15,2.78-.65,1.21-1.9,1.21-2.94,.65-3.13-1.67-6.36-1.56-9.67-.82h-.75c-2.75,.57-5.49,.57-8.24,0-1.94-.3-4.03-.25-5.24-2.25-.24-1.86-.69-3.54-3-3.74-1.52-.06-2.34-1.04-3-2.25-.26-.28-.48-.7-.33-.99,1.11-2.22,.06-3.43-1.91-4.25-1.75-.75-3.5-1.5-5.25-2.25,.03-1.62,1.25-1.3,2.23-1.38,9.27,1.82,18.63,1.75,28.02,1.43,8.92-.31,17.56,1.42,25.98,4.27,2.13,.72,4.27,1.29,6.54,1.39,6.53,.31,9.81,2.99,11.51,9.35,.16,.61,.23,1.29,.77,1.64,4.83,3.19,6.24,8.39,8.04,13.39,1.52,4.26,5.54,5.01,8.75,1.72q2.29-2.35,4.02-1.14Z"/><path class="cls-33" d="M349.91,164.16c-.99,.02-1.98,.03-2.97,.05-.35-.1-.61-.3-.78-.62,.34-3.86-.92-6.96-3.9-9.59-2.13-1.87-3.83-4.22-5.72-6.37-1.47-1.67-2.8-3.44-5.26-3.89-1.11-.2-2.17-1.12-1.79-2.42,.34-1.15,1.63-.88,2.6-.93,3.02-.16,5.98-.04,8.62,1.76,.71,.49,1.53,.95,2.36,1.1,5.45,.99,10.13,3.05,13.06,8.14,.67,1.16,2.17,1.66,3.6,1.7,1.04,.03,1.93,.25,2.72,1,7.42,7.06,15.82,7.74,24.96,3.88,4.1-1.73,8.36-1.37,12.4,0,4.68,1.59,9.47,2.82,13.98,4.95,7.47,3.53,15.11,6.6,22.99,9.2,6.8,2.24,14.03,2.31,20.65,5.01,4.6,1.88,9.11,4.09,13.87,5.45,3.67,1.05,7.12,3.27,11.19,2.78,.69-.08,1.25,.29,1.27,1.04,.02,.77-.52,1.08-1.24,1.01-.79-.07-1.61-.95-2.34,.13-5.01,1.54-9.71,1.45-14.16-1.91-3.44-2.6-7.42-4.07-11.87-3.88-1.51,.06-3-.33-4.42-.73-14.74-4.16-29.41-8.57-43.43-14.8-3.31-1.47-6.84-2.32-10.04-4.04-1.71-.92-3.45-.27-4.95,.73-2.1,1.39-4.36,1.69-6.79,1.39-11.76-1.43-22.97-4.38-32.63-11.67-1.04-.78-2.19-1.22-3.5-.95-.92,.19-1.92,.62-1.13,1.72,1.57,2.17,1.28,4.44,.79,6.81-.26,1.29,.02,2.48,1.07,3.39,.25,.19,.5,.38,.75,.57Z"/><path class="cls-14" d="M302.7,135.92c-.61-1.38-1.8-1.53-3.12-1.51-4.35,.08-8.62-1.15-12.89-1.25-4.05-.09-8.07,.31-12.02-.98-2.65-.86-5.51-1.32-7.04-4.41,4.23-.37,7.54-2.93,11.47-4.06,3.11-.89,6.7-.94,9.32-3.36,.21-.2,.76-.2,1.09-.09,7.87,2.55,16.16,.47,24.1,2.19,4.47,.97,8.97,1.8,13.42,2.81,1.92,.44,3.99,.89,4.2,3.51,.06,.69,.66,.89,1.27,1.15,7.87,3.35,15.38,7.32,21.85,13.02,2.72,2.4,5.95,3.42,9.51,3.44,2.14,0,3.64,.7,3.97,3.01-7.74-1.79-14.96-4.51-21.69-9.05-8.53-5.75-17.34-11.53-28.51-10.42-2.69,.27-4.11-2.12-6.15-3.19-3.81-1.99-7.71-.13-11.56-.82-1.82-.33-2.42,2.38-2.36,4.05,.08,2.4,2.33,3.07,4.15,3.63,6.98,2.14,13.6,5.01,19.68,9.06-2.75-.21-5.15-1.45-7.46-2.77-1.25-.72-2.42-1.05-3.79-.96,0,0,0,0,0,0-2.38-1.28-5.5-.72-7.48-2.99Z"/><path class="cls-39" d="M349.15,163.59c-2.83-.41-2.43-2.37-1.96-4.25,.57-2.26,1.07-4.32-1.54-5.84-1.39-.82-.91-2.05,.45-2.45,2.23-.64,4.29-1.12,6.6,.68,9.66,7.54,21,10.69,33,11.87,1.67,.16,3.24-.17,4.59-1.2,2.79-2.12,5.07-1.59,8.43-.27,5.41,2.13,10.54,4.96,16.15,6.6,5.71,1.66,10.97,4.99,16.67,6.14,8.45,1.7,16.25,6.04,25.09,5.98,3.64-.03,6.8,1.68,9.6,3.74,3.55,2.61,7.15,3.92,11.47,2.4,.94-.33,1.68,.25,2.48,.56,2.02,1.47,3.78,3.2,5.25,5.23-1.24,1.12-2.5,1.07-3.76,.03,.49-.06,1.15,.06,1.43-.22,.7-.67-.11-1.22-.53-1.39-1.82-.74-3.69-1.67-5.7-1.17-5.57,1.38-10.62,.55-14.94-3.38-2.17-1.98-4.62-2.95-7.56-3.44-5.13-.85-10.1-2.51-15.08-4.05-12.82-3.96-25.61-8.08-38.73-10.91-9.4-2.03-18.77-4.33-28.48-4.8-3.18-.15-6.52-1.62-9.32-3.28-2.43-1.43-4.95-2.38-7.54-3.08-3.31-.9-6.01,2.18-6.07,6.51Z"/><path class="cls-15" d="M463.69,153.07c5.71,.05,9.78,3.35,11.39,8.98,.77,2.68,2.84,4.6,4.62,6.64,.98,1.12,1.68,2.23,.84,3.65-.74,1.24-1.86,.94-2.96,.49-.33-.14-.83-.32-1.07-.18-4.64,2.77-8.45,.26-12.73-1.41-5.6-2.19-9.25-7.66-7.22-13.26,1.11-3.06,3.72-4.79,7.13-4.91Z"/><path class="cls-64" d="M346.15,163.6c.26,.21,.52,.41,.78,.62-2.42,.4-4.23,.09-3.81-3.07,.24-1.8-.95-3.2-2.02-4.21-2.89-2.71-4.76-6.71-9.17-7.59-.68-1.84-2.97-2.01-3.8-3.69,2.25-.08,4.24,.88,5.65,2.36,4.26,4.47,9.9,7.93,11.27,14.66,.07,.37,.72,.62,1.09,.92Z"/><path class="cls-38" d="M109.47,83.5c.69-.98,.76-2.66,2.89-1.41,2.06,1.21,4.18-.59,6.31-.84,4.07-.47,7.48-2.7,11.06-4.45,5.47-2.31,11.06-3.75,17.08-2.79,2.54,.4,4.92,1.39,7.66,1.2,2.82-.2,5.18-.69,7.41-2.55,1.62-1.36,3.77-1.88,5.97-1.14,1.14,.44,2.4,.66,3.34,1.47,1.5,1.29,2.82,.68,4.4,.08,3.09-1.18,5.46-3.35,8.05-5.24,.61-.03,1.17-.16,1.51-.74,2.99,0,5.97-.01,8.96-.02,2.84,1.25,5.67,1.76,8.51-.01,.8-.5,1.63-.4,2.49-.02,8.02,3.55,16.81,4.28,25.19,6.55,4.19,1.13,9.15,.5,13.59,1.06,7.86,1,16.25,1.29,22.55,7.32,2.1,2.01,4.74,2.64,7.34,3.45,6.78,2.12,13.8,1.55,20.74,2,8.31,.54,16.61-.87,24.94,.19,3.03,.38,6.18-.41,9.25-.69,4.75-.43,9.64-.51,14.36,.87,.27,.36,.32,.74,.16,1.16-3.45,3.82-8.18,2.28-12.31,2.6-6.89,.53-13.84,.54-20.76,.36-5.67-.15-11.38-.58-16.99-.22-8.89,.58-17.36-2.21-26.19-2.29-6.65-.06-13.45,.41-20.08-1.03-.6-.13-1.24-.09-1.85-.22-1.64-.33-3.25-.81-3.58-2.74-.36-2.1,1.09-3.13,2.67-4.04,.98-.56,2.13-.68,3.16-1.35-1.12-2-2.52-2.9-4.68-1.46-.77,.46-1.64,.14-2.28,1.59-1.45,3.28-4.84,4.18-8.25,4.51-6.89,3.41-14.41,1.73-21.59,2.75-7.71,1.1-15.33,1.86-22.99-.05-1.39-.35-2.72,.16-4.07,.33-1.05,.13-2.02-.13-2.64-1.04-.65-.94,.06-1.64,.59-2.31,.69-.88,1.73-1.76,.31-2.78-1.34-.97-2.25-.31-3.02,.96-.91,1.51-2.54,1.94-4.11,2.37-1.69,.45-3.41,.75-5.08,1.27q-5.16,1.62-8.44-2.72c-.82-1.08-1.84-1.92-3.17-1.37-4.24,1.75-8.76,.73-13.08,1.04-5.38,.38-10.95-.02-16.43-.23-4.45-.17-8.79,1.11-13.02,2.5-2.48,.81-4.39,.31-5.87-1.84l-.04-.04Z"/><path class="cls-71" d="M343.14,88.02c-4.08-.28-8.19,.54-12.25-.63-2.11-.61-3.77,1.36-6.05,1.31-8.07-.17-16.17-.1-24.23-.16-10.44-.08-21.08,.62-31.25-3.35-3.4-1.33-4.83-4.82-8.38-5.86-2.92-.86-5.7-2.21-8.8-1.96-1.26,.1-2.15-.38-3.14-.87-.77-.38-1.66-1.26-2.27-1.09-4.52,1.25-8.94-.75-13.44-.21-3.81,.46-7.41-1.15-10.79-2.47-3.87-1.51-8.08-.85-11.79-2.65-.63-.31-1.5-.11-2.18-.35-2.78-.97-5.19-2.96-8.56-.6-1.79,1.25-4.27-.31-5.89-2.06,3.57-.04,7.18-1.44,10.51-1.19,4.2,.31,8.57,1.38,12.73,1.35,6.18-.06,10.88,4.08,16.57,4.64,7.83,.77,15.57,2.22,23.51,2.43,6.55,.17,13.22,1.56,19.53,3.88,.35,.13,.79,.28,.96,.55,3.6,5.96,9.99,6.08,15.66,6.69,5.33,.57,10.84,.83,16.26,.11,8.44-1.13,16.91-1.7,25.33,.02,2.73,.56,5.19-.16,7.69-.81,2.48-.64,4.92-.55,7.39-.21,6.43,.89,12.65,3.13,19.36,2.26,1.96-.25,4.3,1.03,6.21,2.08,3.42,1.89,7.31,2.26,10.82,3.66,10.24,4.09,20.8,7.39,30.69,12.34,9.1,4.56,17.71,9.86,25.7,16.17,1.06,.84,2.31,1.45,3.47,2.16,1.66,1.37,3.43,2.59,5.24,3.74,0,0,0,0,0,0,1.23,1.27,2.97,2.03,3.74,3.74-1.2,.96-2.05-.03-2.99-.53-6.23-3.34-11.41-8.29-17.71-11.51-2.72-3.28-5.92-5.83-10.25-6.62-.73-.17-1.38-.5-1.93-1.01-5.7-4.35-12.45-6.55-18.92-9.32-4.24-1.81-8.7-2.87-13.15-3.98-.37-.14-.71-.32-1.05-.53-7.52-3.46-15.42-5.55-23.61-6.59-5.41-.69-10.74-2.01-16.26-2.01-2.14,0-4.47,1.29-6.47-.55Z"/><path class="cls-31" d="M333.4,67.8c1.17-.68,2.44-.82,3.75-.74,.2,2.05-1.12,3.43-2.34,4.7-.88,.93-2.28,.75-3.41,.18-1.07-.54-1.74-1.35-.98-2.63,1.03-.43,1.69-1.6,2.98-1.52Z"/><path class="cls-17" d="M451.74,126.93c-2.39-.34-4.02-1.75-5.24-3.74,2.17,.66,4.02,1.76,5.24,3.74Z"/><path class="cls-13" d="M36.06,147.85c-3.2-.48-6.01,1.18-8.33,2.65-4.71,2.99-10.26,3.47-15.05,5.99-.89,.47-1.72,.32-2.33-.47-.62-.81-.55-1.79,.22-2.35,3.42-2.48,5.9-6.38,10.79-6.65,3.94-.22,7.85-.93,11.78-1.34,1.54-.16,3.15-.18,2.93,2.16,0,0-.01,0-.01,0Z"/><path class="cls-16" d="M67.57,141.18c1.34,1.32,2.75,.56,4.17,.18,.41-.11,1.11-.01,1.33,.27,.48,.61-.09,1.12-.5,1.57-.74,.8-1.69,.98-2.73,.97-2.5-.02-4.99-.04-7.49,0-1.33,.02-2.74-.18-3.13-1.5-.37-1.27,1.46-1.01,1.94-1.81,.18-.3,.22-.69,.33-1.04,2.22-.42,4.21,.2,6.07,1.38Z"/><path class="cls-74" d="M67.57,141.18c-2.13,0-4.28,.09-6.07-1.38-.41-.52-.82-1.04-1.24-1.55,.19,0,.38-.01,.57-.06,2.95-.2,5.83-1.34,8.85-.61,2.19,2.02,2.17,2.05-2.11,3.61Z"/><path class="cls-72" d="M167.9,72.31c-2.97-1.62-5.13,.48-6.79,2.11-2.99,2.95-7.1,2.53-9.64,1.67-7.56-2.58-14.56-.94-21.74,.71-1.5-.36-3.01,.8-4.52-.01,2.43-1.74,5.37-1.63,8.11-2.21,3.13-.66,6.25-1.19,9.23-2.53,3.89-1.74,8.26-1.64,12.39-1.82,3.4-.14,6.99-1.95,10.43,.43,.8,.55,2.58,.48,2.36-1.64-.27-2.69,2.38-2.59,3.16-1.99,2.01,1.56,3.44,1.72,5.59,.27,1-.67,2.9-.74,4.16,.51-3.44,3.79-7.44,6.01-12.75,4.5Z"/><path class="cls-54" d="M167.9,72.31c4.95,.47,8.79-2.2,12.75-4.5,1,0,1.99,.01,2.99,.02-1.75,1.7-2.54,3.79-5.39,5.11-4.17,1.93-7.02,2.06-10.35-.63Z"/><path class="cls-52" d="M290.15,49.09c-4.68-.58-9.61-.75-14.26-2.54-1.88-.73-3.03-2.11-3.75-3.91-.21-.52-.68-1.04-.07-1.66,5.83-5.98,11.5-12.13,17.56-17.87,1.77-1.67,4.61-2.29,7.05-3.14,1.75-.62,3.98-.64,5.11-2.02,2.06-2.5,4.9,.77,6.99-1.31,.27-.27,.86,1.84,.21,2.36-3.61,2.84-2.38,6.75-2.54,10.35-.09,2.11-.02,4.23-.02,6.34,0,5.51-.5,6.48-5.72,7.89-2.68,.72-4.81,1.78-6.39,4.06-.94,1.36-2.47,1.54-4.19,1.46Z"/><path class="cls-56" d="M286.31,19.23c6.34-3.51,12.53-7.33,19.08-10.39,3.75-1.76,7.49-4.1,12.06-4.26-.55,2.59-3.12,1.99-4.3,3.3-6.06,1.28-10.98,4.94-16.29,7.79-9.45,5.08-17.36,12.26-25.73,18.8-.64,.5-1.4,1.04-2.65,.39,5.45-5.99,12.41-9.94,17.82-15.62Z"/><path class="cls-52" d="M316.93,13.93c-.12,0-.24,0-.36,0-1.16-.08-2.52,.28-3.02-1.27-.06-.19,.31-.75,.51-.76,1.46-.08,2.6,.38,2.87,2.03,0,0,0,0,0,0Z"/><path class="cls-65" d="M302.7,94.76c1.37,1.44,3.34,.9,4.93,1.13,3.04,.43,3.94,2.5,4.57,4.72,.57,2.03-1.13,3-2.73,3.9-2.06,1.16-1.69,2.22,.37,2.97,1.39,.51,2.82,1.44,4.19,1.39,3.01-.13,5.51,.77,8.06,2.25,2.91,1.7,6.37,.81,9.37,.64,7.17-.41,14.02,1.13,20.79,2.66,4.14,.94,8.07-1,12.11,.43,2.47,.87,4.86,1.27,5.01,4.49,.08,1.63,1.24,1.64,2.4,1.56,.84-.06,2.39-.41,2.42-.3,.98,3.64,5.04,4.43,6.69,7.26,.8,1.37,1.25,2.61,2.8,3.48,2.27,1.28,3.34,3.58,3.63,6.19,.1,.86,.1,1.75,.35,2.56,.31,.97,1.86,1.9,.6,2.89-1.1,.86-2.57,1.54-4.16,.68-2.68-1.45-5.48-1.25-8.33-.53-.69,.17-1.59,.32-2.17,.04-4.84-2.37-10.41-2.07-15.31-4.39-2.58-1.22-5.64-1.46-8.49-2.11-1.49-.34-2.9-.74-3.66-2.24,2.07-1.1,4.14-.02,6.21-.04,5.92,.74,11.49,2.98,17.31,4.12,.79,.15,1.69,1.03,2.35,.04,.51-.77,.15-1.8-.4-2.43-1.47-1.67-2.21-3.35-1.83-5.71,.36-2.29-2.43-1.61-3.39-2.79-.26-.25-.49-.52-.68-.83-2.52-3.52-4.7-6.85-10.26-6.16-3.69,.46-7.35-2.01-10.61-4.05-3.3-2.07-6.96-1.54-10.48-1.8-1.63-.12-2.66,1.46-2.41,3.16,.32,2.2-.33,5.21,2.7,5.89,3.2,.71,5.72,3.6,9.5,2.59,1.41-.37,2.27,1.25,2.72,2.64,.34,1.87,.59,3.73-.75,5.37-3.02-2.78-7.08-3.96-10.52-6-2.04-1.21-3.77-1.94-4.75-4.13-.18-.4-.7-.87-1.11-.92-4.42-.56-8.21-3.48-12.87-3.2-6.93,.42-13.8-.45-20.65-1.46-2.26-.33-3.57-1.57-4.02-3.75-.21-1.02-.46-2.29-1.8-1.61-2.39,1.22-4.9,.59-7.33,.95-1.31,.2-2.99,.52-3.74,1.42-4.59,5.55-11.05,5.47-17.3,6.02-1.03,.09-2.05,.15-2.82,.75-2.77,2.16-5.6,1.75-8.67,.71-2.63-.89-5.08-3.65-8.23-1.21-2.37-2.16-5.21-.78-7.83-1.03-6.05-.59-11.99,.27-17.91,1.34-.59,.11-1.26,.08-1.83-.1-.96-.29-1.93-.82-2.75,.14-.6,.71-.03,1.43,.35,2.04,.7,1.13,2.32,1.56,2.92,.92,3.67-3.86,6.83,.04,10.07,.64,2,.37,3.58,1.51,6.06,1.11,2.58-.42,5.4,1.1,8.06,2.08,4.84,1.79,10.3,1.56,14.85,4.46,.73,.47,1.56,.7,1.96,1.56-1.5,0-3,0-4.5,.01-5.72-.98-11.36-2.39-17.07-3.43-9.15-1.65-18.39-2.83-27.3-5.66-4.07-1.3-7.69-3.52-11.12-5.97-2.85-2.04-2.32-5.19,.84-6.84,1.49-.78,3.12-.86,4.74-.82,5.35,.11,10.72-.42,16.04,.52,1.81,.32,3.37-.58,5.04-1.04,4.29-1.17,8.59-2.4,12.78,.73,2.06,1.54,4.75,1.27,7.25,1.24,4.09-.05,8.08-.02,12.2,.9,4.08,.92,8.46-.03,12.4-1.75,4.46-1.95,9.22-3.04,13.71-4.88,2.53-1.04,5.11-1.91,7.34-3.59,2.78-2.1,6.1-1.8,9.34-1.9,2.12-.06,5.41,.71,5.6-2.14,.19-2.93-3.29-2.21-5.28-2.79-1.93-.56-3.98-.27-5.93-.61-1.79-.31-3.85-.5-3.88-3.11,3.3,1.03,6.59-.26,9.89-.03,1.49,.1,2.99-.06,4.33,.78Z"/><path class="cls-68" d="M288.48,94.01c1.19,1.99,3.12,2.38,5.18,2.21,2.91-.25,5.66,.64,8.47,1.04,1.64,.23,3.67,1.2,3.35,3.33-.26,1.76-1.84,3.41-3.7,3.04-9.18-1.83-15.92,4.46-23.81,6.85-7.04,2.14-13.73,5.35-21.24,5.99-2.66,.23-4.14-2.36-7.02-1.71-3.06,.69-6.41,.34-9.62,.13-2.51-.17-4.64-1.16-6.96-2.59-2.61-1.61-6.78-1.07-9.84,.56-2.42,1.29-4.54,1.15-7.08,.96-5.7-.42-11.44-.34-17.16-.26-1.83,.02-3.4,1.14-3.82,3.05-.44,2.02,1.35,2.77,2.66,3.57,9.12,5.55,19.02,8.28,29.69,9.17,6.11,.51,12.13,2.39,18.09,4.01,2.02,.55,4.7-.86,6.08,1.81-4.92,.64-9.71-.7-14.37-1.68-11.34-2.38-22.93-3.79-33.87-7.98-2.75-1.05-5.67-1.8-8.58-2.25-2.45-.38-3.69-2.81-5.79-3.18-8.11-1.41-13.25-8.5-21.08-10.62-2.78-.75-5.35-2.95-8.34-3.85-.69-.21-1.45-.6-1.46-1.51,0-1.01,.68-1.65,1.55-1.89,2.02-.55,4.06-1.11,6.13-1.42,9.32-1.4,18.51-.35,27.64,1.65,5.64,1.24,11.37,.49,17.06,.77,7.78,.39,15.56,.33,23.23,2.1,3.24,.75,6.59,1.13,9.91,1.37,2.36,.17,4.48,.7,6.75,1.44,3,.97,6.47,.75,9.73,.63,5.27-.21,10.48-.93,15.83-.87,4.31,.05,9.03-1.55,12.63-4.77,1.14-1.02,1.54-2.23,.92-3.69-.56-1.32-1.28-2.22-2.94-2.44-5.22-.71-10.42-.79-15.68-.9-7.75-.17-15.61-.15-23.26-1.81-3.4-.74-6.96,.8-10.22-.99,16.97,.26,33.95,.51,50.92,.77Z"/><path class="cls-77" d="M109.51,83.54c2.44,.9,4.36,.89,7.26,.03,3.71-1.1,8.09-2.56,12.38-1.83,5.54,.93,11.17-.33,16.75,.79,1.75,.35,3.6-1.76,5.69-1.23,2.15,.55,3.9,1,6.21-.51,1.96-1.28,4.22,.73,4.68,2.95,.66,3.17,2.24,2.98,4.61,2.18,2.58-.87,5.25-1.46,7.88-2.17,2.12-.57,4.4-1.02,3.05-4.02,1.42-.6,2.17,.52,3.16,.44,1.7-.14,2.5,.92,2.97,2.3,.59,1.71-1.04,1.59-1.85,2.19-.53,.39-1.53,.77-.92,1.66,.28,.42,1.35,.85,1.59,.67,3.49-2.7,7.27-.34,10.32,.31,6.06,1.28,11.63-.29,17.28-1.09,2.97-.42,5.94-.21,8.73-.15,3.46,.08,6.54-.2,9.68-1.5,.98-.41,2.21-.21,3.32-.28,.25,.17,.33,.33,.25,.5-.08,.17-.16,.25-.24,.25-.5,.25-.99,.5-1.49,.75-8.12,3.1-16.75,3.04-25.2,4.08-.6,.07-1.25,.1-1.78-.34-11.72,0-23.43,.05-35.15-.04-4.26-.03-8.61,.05-12.44-2.39-1.12-.71-2.4-.6-3.64-.56-7.57,.24-15.15,.52-22.72,.72-1.82,.05-3.57-.32-5.41-.77-3.98-.99-8.26-1.52-11.8,1.7-.55,.5-1.12,1.2-1.77,1.32-8.48,1.62-16.2,5.45-24.27,8.24-.33,.12-.74,.02-1.12,.02,4.5-4.03,10.22-5.8,15.63-7.94,3.52-1.39,6.27-3.23,8.35-6.27Z"/><path class="cls-55" d="M232.31,85.03c0-.25,0-.5,0-.75,3.09-1.28,6.72-1.75,8.03-5.63,.1-.28,1.1-.26,1.69-.38,1.12-.7,2.16-.69,2.87,.52,.63,1.07-.03,1.94-.79,2.6-1.69,1.46-4.16,2.94-3.23,5.33,1.01,2.61,4.09,1.64,6.33,1.98,6.76,1.01,13.63,.71,20.41,.88,6.5,.17,12.78,1.88,19.12,1.86,8.26-.03,16.5,.52,24.76,.3,3.46-.09,6.92-.41,10.39-.32,.72,.02,1.92-.46,1.78,1.08h0c-4.38,2.28-8.96,1-13.49,.75-.82,.02-1.7-.13-2.25,.74-1.24,0-2.48,0-3.72,0-1.11-1.19-2.57-.7-3.88-.72-10.37-.19-20.78,.57-31.11-.8-8.18-1.09-16.33-.36-24.48,.05-3.15,.16-5.78-1.84-8.95-1.86-1.38,0-2.3-1.51-.55-2.9,.73-.58,2.24-.8,1.88-1.97-.43-1.39-1.93-.59-2.95-.75-.61-.09-1.24-.02-1.86-.02Z"/><path class="cls-45" d="M137.2,89.52c0,.24,0,.49,0,.73-4.25,2.38-9.09,2.5-13.69,3.05-4.78,.57-9.23,1.8-13.67,3.45-2.01,.74-3.99,2.27-6.35,.98,.53-2.41,3.84-1.46,4.51-3.7,2.55,.12,4.79-.59,7.03-1.91,3.03-1.79,6.66-.85,10.01-1.64,3.91-.92,8.1-.68,12.17-.95Z"/><path class="cls-55" d="M203.85,89.52c8.94-1.61,18.15-1.29,26.97-3.74-4.3,2.4-9.08,3.31-13.86,3.63-4.34,.29-8.74,2.14-13.12,.1Z"/><path class="cls-31" d="M340.15,70.8c2.96-.64,5.75-3.47,8.99-.75-2.61,4.33-6.2,5.41-10.83,3.22-.02-1.28,1.66-1.34,1.84-2.47Z"/><path class="cls-70" d="M220.33,168.84c.98-1.14,2.3-.69,3.5-.73,8.14-.32,16.2,.71,24.28,1.45,6.76,.62,13.57,.22,20.25-.95,3.27-.57,6.34-.57,9.53,.16,1.81,.42,4.35,.36,4.3,2.58-.04,1.99-2.55,1.75-4.2,1.98,1.37-2.57,.46-3.56-2.31-3.77-5.02-.38-9.79,1.33-14.74,1.54-10.56,.45-21.01-.5-31.44-2.14-2.99-.47-6.12-.1-9.18-.11Z"/><path class="cls-70" d="M202.35,177.81c-3.05,0-6.1,0-9.14-.03-1.17-.01-2.56,.32-2.86-1.45,4.07-.05,8.15-.16,12.01,1.48Z"/><path class="cls-70" d="M210.58,172.57c.38-4.36,3.62-5.71,9-3.74-3.91-.94-6.33,1.7-9,3.74Z"/><path class="cls-42" d="M103.49,97.72c5.09-1.07,9.6-3.94,14.77-4.73,6.31-.96,12.63-1.83,18.95-2.74,2,.25,3.99,.5,5.99,.75-.4,2.67-1.12,5.33-4.15,5.9-6.29,1.19-12.25,4.24-18.66,4.15-3.29-.05-5.33,1.19-7.64,2.88-2.57,1.88-5.78,1-8.54,1.08-4.66,.13-9.16,1.54-13.84,1.27-.86-.05-1.81,.43-2.19-.62-.48-1.35,.63-1.67,1.61-1.96,2.83-.84,5.12-3.08,8.31-3.09,1.15,0,1.89-1.09,2.42-2.12,1.09,.1,2.07-.22,2.98-.78Z"/><path class="cls-45" d="M100.52,98.45c-7.29,1.64-13.81,5.3-20.75,7.88-2.76,1.03-5.89,1.01-8.32,2.96-1.72,1.38-2.6,3.44-4.66,4.67-4.21,2.53-9.01,3.37-13.39,5.34-2.91,1.31-6.1,2.07-8.32,4.62-.43,1.83-2.03,2.44-3.46,3.1-4.62,2.12-9.25,4.22-13.21,7.5-.78,.64-1.7,1.04-2.76,.66-.26,0-.51-.01-.77-.02,5.33-4.39,9.27-10.21,14.5-14.6,3.54-2.97,8.31-4.49,12.96-5.36,5.46-1.02,10.57-2.87,15.13-5.91,3.41-2.27,7.21-3.47,10.98-4.45,5.45-1.41,10.3-3.98,15.34-6.25,2.01-.9,4.45-3.36,6.73-.14Z"/><path class="cls-45" d="M24.88,135.17q-1.18,4.44,3.74,4.49c-.4,.55-.98,.79-1.63,.72-1.45-.14-3.42,1.32-4.21-.96-.66-1.92,.31-3.37,2.1-4.25Z"/><path class="cls-67" d="M155.95,158.32c1.2,.38,2.65-.4,3.66,.81-1.12,0-2.26-.13-3.34,.06-1.14,.19-1.76,1.15-1.24,2.2,2.04,4.11,3.51,8.54,6.64,12.05,1.11,1.25,1.79,2.66,1.73,4.37-.05,5.71,4.62,8.33,7.94,11.71,2.81,2.86,6.45,4.89,8.54,8.49,.19,1.2,2.35,1.62,1.54,3.04-.71,1.23-2.29,.75-3.47,.68-6.99-.44-13.66-1.67-19.31-6.44-2.33-1.96-5.65-2.4-8.63-3.07-5.55-1.25-8.27-5.95-11.92-9.46-.97-.93-1.58-2.5-2.85-3.26-1.92-1.14-2.79-2.35-2.23-4.85,.51-2.27-1.69-3.49-3.45-4.2-3.12-1.25-5.95-2.96-8.84-4.62,4.88-1.86,13.2,2.71,15.16,8.93,.9,2.85,2.59,4.71,4.53,6.59,1.94,1.89,4.28,3.29,5.85,5.66,1.99,3.01,4.63,.89,6.92,.27,2.09-.57,2.73-1.98,2.22-4.32-.43-1.96,1.57-2.89,3.05-3.79,2.18-1.33,2.97-2.95,1.19-5.13-2.23-2.74-3.36-6.38-6.7-8.22-1.19-.91-1.34-2.24-1.45-3.59-.32-4,.27-4.52,4.47-3.93Z"/><path class="cls-63" d="M323.68,92.51c-.85-1.06-2.11-.94-3.11-.7-5.62,1.36-11.37,.93-16.95,.54-9.51-.66-19.04,.12-28.61-1.61-5.67-1.03-11.93-.7-17.95-.48-4.98,.18-10.02-.32-14.99-.93-3.27-.41-3.86-2.84-1.59-5.33,.92-1.01,1.91-1.96,2.9-2.91,2.43-2.32,.92-2.74-1.34-2.82,1.97-1.84,6.97-.99,7.97,1.45,.48,1.17-.47,1.57-1.45,1.52-1.71-.09-3.15,.57-4.6,1.33-1.05,.56-1.96,1.17-1.83,2.52,.15,1.6,1.46,2.09,2.67,2.08,3.62-.03,7.11,.98,10.76,.91,10.49-.21,20.86,1.1,31.27,2.44,4.26,.55,9.18,1.73,13.74-.46,1.74-.84,3.48,1.31,5.6,1.01,7.61-1.09,15.26,.24,22.96-.41,4.74-.4,9.48-.14,14.02-1.9,.48-.47,1.05-.36,1.61-.22,10.07,1.58,20.06,3.69,30.07,5.56,8.63,1.61,16.96,4.82,25.39,7.42,13.04,4.01,24.17,11.66,35.74,18.34,9.23,5.33,18.14,11.39,26.77,17.63,6.26,4.52,12.2,9.79,17.47,15.62,1.74,2.53,4.38,3.96,6.76,5.74,1.04,.78,2.18,1.69,2.25,3.23-5.47-.13-9.73-2.21-12.01-7.46-1.76-2.48-3.95-4.41-6.67-5.86-3.64-1.94-6.66-4.79-9.91-7.3-.49-.38-.88-.88-1.35-1.29-3.97-3.34-9.43-4.04-12.75-9.04-2.85-4.3-8.42-6.7-13.34-8.59-15.22-5.85-28.48-15.82-44.25-20.54-4.34-1.3-8.67-3.04-12.84-5.01-5.07,.37-9.8-.43-14.37-2.96-3.67-2.02-8.08-.98-12.09-1.3-8.6-.7-17.3-.23-25.95-.23Z"/><path class="cls-38" d="M480.21,153.11c-5.68-4.37-11.41-8.66-16.48-13.78-3.54-3.57-8.61-4.93-12.43-8.13-4-3.35-9.02-5.22-12.84-8.86-2.73-2.61-6.47-3.56-9.61-5.59-13.73-8.92-28.77-15.03-44.52-19.31-11.69-3.17-23.71-4.84-35.59-7.18-1.46-.29-2.94-.46-4.11-1.5,4.01-1.56,8.04-.19,11.96,.23,11.55,1.24,22.92,3.5,33.73,7.99,8,2.25,15.75,5.12,23.33,8.56,3.3,1.5,6.41,3.28,9.62,4.91,.32,.6,.88,.73,1.5,.75,3.76,1.83,7.31,3.99,10.48,6.74,7.26,3.41,12.86,9.46,20.22,12.72,4.33,2.79,8.1,6.48,13.15,8.1,.34,.11,.85,.3,.93,.56,1.8,5.61,7.17,8.28,10.39,12.71,.2,.27,.17,.71,.25,1.07Z"/><path class="cls-18" d="M116.2,161.42c-.88-2.2-2-4.23-3.83-5.82-.53-.46-1.32-.98-.99-1.81,.42-1.06,1.53-.74,2.28-.62,3.69,.62,7.09,2.06,10.11,4.25,1.37,.99,.07,4.57-2.15,6.33-.75,.59-1.61,.55-2.46,.63-1.21-.77-2.2-1.75-2.96-2.97Z"/><path class="cls-3" d="M302.7,135.92c2.4,1.22,5.45,.83,7.48,2.99-4.22-.05-8.15-1.62-12.26-2.3-6.39-1.06-12.79-.54-19.18-.71,0-.24,0-.48-.01-.72,.75-.01,1.5-.02,2.25-.03,3.25-.56,6.5-.56,9.75,0,4.03-.32,7.98,.47,11.97,.78Z"/><path class="cls-68" d="M259.26,135.15c2.64-2.15,13.97-2.15,16.49,0-5.5,0-10.99,0-16.49,0Z"/><path class="cls-21" d="M25.64,135.19c5.86-4.82,13.01-7.42,19.44-11.26,4.87-1.1,9.09-3.92,13.93-5.24,2.5-.68,4.9-.61,7.36-.73,.6-.03,1.34-.07,1.55,.7,.18,.69-.31,1.23-.82,1.53-1.81,1.07-3.58,2.29-5.52,3.04-8.8,3.38-17.92,6.16-25.64,11.77-2.86,2.08-5.38,3.05-8.66,1.61-.73-.32-1.3-.7-1.63-1.42Z"/><path class="cls-29" d="M72.21,128.46c-.84,.76-1.14,1.18-1.55,1.39-2.31,1.18-4.63,2.32-6.96,3.47-1.24,.61-2.11,.01-2.94-.86-.92-.98-.31-1.86,.15-2.71,1.86-3.4,6.27-4.62,9.28-2.6,.61,.41,1.24,.81,2.02,1.31Z"/><path class="cls-46" d="M155.95,158.32c-2.68-.28-3.95,.42-3.46,3.57,.2,1.24,.74,2.59,.44,3.94,2.38,4.9-.19,8.76-2.69,12.61-.62,.96-1.84,1.19-2.68,.67-2.75-1.68-6.23-2.48-6.75-6.71-.29-2.34-2.79-3.63-4.35-5.34-.48-.53-1.72-.96-1.34-1.58,1.82-2.95-.21-4.57-1.7-6.72-1.76-2.54,.04-4.09,4.57-4.12-.46,.87-.62,1.69,.57,2.07,.96,.31,1.76,.61,2.31,1.64,1.59,3.02,5.43,3.99,7.08,1.31,2.49-4.08,5.09-2.54,8.01-1.35Z"/><path class="cls-22" d="M163.42,132.17c-1.76-.86-3.44-1.34-5.56-1.11-6.12,.66-11.59-2.08-17.19-3.97-1.85-.62-1.55-2.22-1.24-3.76,.45-2.2,1.69-3.58,3.92-3.83,1.47-.17,3.02-.25,4.47,0,8.95,1.48,18.4,1.07,26.3,6.64,.89,.63,2.79,.88,2.25,2.45-.42,1.2-2.02,.66-3.04,.57-3.32-.3-6.11,.62-8.41,3.03-.5,0-1,0-1.49,0Z"/><path class="cls-26" d="M309.45,161.35c-3.66-1.84-7.66-2.42-11.65-2.95-2.78-.37-4.26-1.98-4.76-4.47-.56-2.81,1.96-3.49,3.72-4.41,2.46-1.29,6.1-.86,6.18-5.24,.02-1.26,1.41-.37,1.94,.22,1.08,1.19,1.97,2.55,3.06,3.73,2.19,2.37,4.84,2.89,7.64,1.26,1.24-.72,2.29-1.19,3.28,.01,1.45,1.75,4.21,2.71,3.94,5.53-.19,1.9-1.82,2.32-3.52,2.73-1.97,.48-4.33,.78-4.6,3.59-1.75,0-3.49,0-5.24,0Z"/><path class="cls-29" d="M275.55,147.85c-1.35-.15-2.38-.95-2.66-2.43-.17-.92,.35-1.86,1.39-1.73,1.54,.18,2.08,1.57,2.57,2.83,.4,1.01-.27,1.29-1.3,1.33Z"/><path class="cls-1" d="M335.66,109.72c2.91-1.01,5.8-1.88,8.78-.12,.92,.54,1.93,1.3,3.1,.42,.48-.37,.54-.86,.15-1.28-.82-.89-1.63-2.38-2.98-1.83-3.24,1.32-3.89-.78-4.63-3.03-.35-1.06-.96-1.86-2.2-1.14-3.41,1.97-5.74-1.29-8.73-1.68,3.57,2.24,6.69-3.08,10.2-.56,.08,.05,.28,.04,.36-.03,6.66-6.01,12.38,1.15,18.56,1.24,4.81,.07,7.49,5.03,12.44,4.47,1.53-.17,2.02,1.56,.63,2.6-2.32,1.74-1.7,3.5-.48,5.43-2.75-.51-2.84-2.67-3.01-4.81-.23-2.83-2.84-2.28-4.49-2.96-1.79-.74-1.62,1.17-1.89,1.99-1,3.05-4.48,4.79-7.68,4-5.95-1.47-11.95-2.75-18.13-2.7Z"/><path class="cls-14" d="M265.59,131.39c-2.96,2-5.04-.51-7.58-1.11,3.05-3.32,3.1-3.31,7.58,1.11Z"/><path class="cls-1" d="M313.19,96.25c1.65,.59,3.31,1.19,4.96,1.78-2.52,0-2.98,1.44-2.72,3.46-1.25-1.53-.54-3.9-2.25-5.24Z"/><path class="cls-68" d="M290.73,135.14c-3.25,0-6.5,0-9.75,0,3.25-1.2,6.5-1.19,9.75,0Z"/><path class="cls-1" d="M318.43,103.73c3.46-.72,3.67,1.16,3,3.74-.87-1.35-1.53-2.87-3-3.74Z"/><path class="cls-1" d="M326.67,109.72h8.24c-2.75,1.21-5.49,1.21-8.24,0Z"/><path class="cls-53" d="M310.19,93.26c4.54,.49,8.97-.87,13.49-.75,3.87,1.78,8.17,1.08,12.03,.95,5.49-.19,10.87,.46,16.3,.49,4.12,.02,8.06,.28,11.5,2.77,2.19,1.58,4.85,1.24,7.21,1.47,6.3,.64,11.47,3.12,16.42,6.98,3.45,2.69,7.52,4.89,11.65,6.33,4.55,1.59,6.52,5.13,8.18,8.84,.89,1.99-1.97,2.93-3.17,4.33-1.9-1.33-2.31,.56-2.96,1.5-1.36,1.96-2.76,3.32-5.5,2.87-3.28-.54-4.74-2.47-5.77-5.42-1.59-4.57-2.15-9.92-7.79-11.94-1.24-.44-.83-1.46-.69-2.51,.34-2.53-.96-4.02-2.94-5.78-4.82-4.28-11.04-2.48-16.4-4.62-9.62-3.83-20.07-5.22-30.29-3.8-6.82,.95-13.11-.88-19.65-1.04-.55-.01-1.09-.46-1.64-.7Z"/><path class="cls-78" d="M376.09,97c6.88,1.26,13.27,4.13,19.69,6.64,10.71,4.18,20.63,10.12,30.91,15.23,6.4,3.18,12.71,6.41,18.75,10.18,2.08,1.3,4.29,2.55,4.93,5.29,.12,.51,.74,1.29,1.15,1.3,5.52,.17,8.82,4.3,12.53,7.35,3.64,3,7.98,5.05,11.2,8.57,.83,.9,1.95,1.62,1.93,3.05-4.43-4.78-10.84-6.32-16.12-9.76-3.75-2.45-7.46-5.06-11.82-6.67-2.04-.75-4.92-2.65-3.29-6.2,.37-.8-.56-1.32-1.14-1.71-5.13-3.5-10.38-7.01-16.67-7.68-6.74-.71-11.8-3.85-16.69-8.31-2.81-2.56-6.09-5.45-10.56-5.34-.36,0-.82-.01-1.08-.22-6.76-5.34-15.16-7.15-22.78-10.62-.4-.18-.64-.73-.95-1.11Z"/><path class="cls-37" d="M390.33,97c-3.4-.02-6.55-1.3-9.65-2.39-8.64-3.05-17.62-4.11-26.62-5.03-3.13-.32-6.19-1.73-9.42-.8-.5,0-.99,0-1.49,0,0-.25,0-.5,0-.75,11.1-1.49,21.86,1.27,32.53,3.33,4.93,.95,10.54,1.81,14.65,5.65Z"/><path class="cls-37" d="M423.27,110.47c-5.27-2.36-10.49-4.85-15.83-7.05-3.84-1.59-7.82-2.86-11.78-4.16-1.85-.61-3.9-.71-5.35-2.26,7.85,1,14.96,4.18,22.08,7.41,3.81,1.73,7.75,3.13,10.87,6.06Z"/><path class="cls-37" d="M435.26,117.95c-3.63-2.03-7.41-3.84-10.48-6.74,4.48,.71,7.83,3.18,10.48,6.74Z"/><path class="cls-58" d="M289.17,45.41c-.99-.06-2.01,0-2.97-.2-4.11-.82-4.46-1.49-3.17-5.55,.86-2.71,1.71-5.42,2.48-8.15,.29-1.04,.91-1.74,1.74-2.33,3.43-2.44,7.13-.89,10.72-.63,.65,.05,1.4,.83,1.29,1.64-.69,5.17-2.24,10.07-5.48,14.23-1.05,1.36-2.99,.97-4.61,.99Z"/><path class="cls-49" d="M346.15,134.41c0-1.99,0-3.99,0-5.98-.46-1.17-.89-2.34-2.51-2.26-3.12,.17-5.71-1.62-8.55-2.45-2.66-.78-4.28-3.99-3.52-6.6,.77-2.64,2.86-2.49,4.87-1.93,5.4,1.51,10.67,3.45,15.99,5.21,1.29,.43,2.49,1.04,3.95,.89,4.64-.48,7.58,2.13,9.99,5.65,1.79,3.2-.82,5.38-1.97,7.83-.56,1.19-1.66,.79-2.29-.32-.48-.84-.36-1.98-1.44-2.73-1.79,.48-.79,3.65-3.04,3.57-1.58-.05-3.15-.36-4.74-.12-2.28,.1-4.55,0-6.73-.75,0,0,0,0,0,0Z"/><path class="cls-68" d="M294.47,110.35c.22-1.46-.61-3.34,1.64-4.34,2.07-.91,3.71-.56,5.51,.68,2.73,1.87,5.64,3.49,8.46,5.23,1.03,.63,2.53,1.22,1.94,2.71-.56,1.43-2,1.2-3.23,.73-1.24-.47-2.37-.57-3.44,.45-2.71,2.6-5.78,1.56-8.6,.47-2.53-.98-2.29-3.54-2.29-5.93Z"/><path class="cls-68" d="M366.36,126.93c-3.41-2.34-6.3-4.9-11.24-4.83-4.28,.07-8.69-2.34-12.85-4.12-1.74-.75-3.62-.57-5.28-1.54-1.63-.95-3.89-1.66-4.78,.65-.95,2.45,.13,4.74,2.75,5.68,2.87,1.03,5.8,1.94,8.78,2.58,1.88,.41,2.5,1.35,2.4,3.07-.35-.35-.77-1.04-1.05-.99-3.77,.69-6.73-1.41-10.04-2.52-2.43-.81-4.6-3.88-4.17-7.74,.3-2.65,2.45-3.81,5.47-3.66,5.51,.26,10.18,2.67,14.92,5.08,2.06,1.05,4.22,2.29,6.63,.65,.36-.24,1.19-.41,1.37-.21,2.41,2.6,6.63,3.59,7.1,7.91Z"/><path class="cls-68" d="M352.88,135.16c.89-.45,1.8-.92,2.83-.73,1.93,.37,3.49,.65,2.74-2.35-.25-1.01,1.02-1.98,2.24-2.02,1.42-.05,1.81,1,1.93,2.23,.08,.81-.29,1.74,.88,2.63,.77-2.82,3.31-4.8,2.87-7.99,.82,.25,1.64,.7,2.46,.7,2.03,.02,2.68,.84,2.06,2.77-.59,1.84-.73,3.33,1.41,4.65,1.44,.89,1.59,3.55,.98,4.72-.84,1.61-2.57-.11-3.92-.46-5.48-1.41-10.98-2.77-16.47-4.15Z"/><path class="cls-28" d="M136.83,93.17c.08,1.37-1.1,1.31-1.96,1.71-6.47,3.05-13.22,4.77-20.42,4.39-1.07-.06-2.61,.33-2.87-1.02-.23-1.23,1.36-1.14,2.18-1.57,5.06-2.62,10.46-3.7,16.14-3.53,2.3,.07,4.59,.01,6.92,.01Z"/></g></g></svg>