<?xml version="1.0" encoding="UTF-8"?><svg id="Layer_2" xmlns="http://www.w3.org/2000/svg" viewBox="0 0 1925.5 805"><defs><style>.cls-1{fill:none;stroke:#7400b8;stroke-miterlimit:10;stroke-width:5px;}</style></defs><g id="Layer_6"><g><line class="cls-1" x1="1546.62" y1="2.5" x2="1473.54" y2="2.5"/><line class="cls-1" x1="1400.46" y1="2.5" x2="1327.38" y2="2.5"/><line class="cls-1" x1="1692.77" y1="2.5" x2="1619.69" y2="2.5"/><line class="cls-1" x1="1619.69" y1="2.5" x2="1546.62" y2="2.5"/><line class="cls-1" x1="1473.54" y1="2.5" x2="1400.46" y2="2.5"/><line class="cls-1" x1="1181.23" y1="2.5" x2="1108.15" y2="2.5"/><line class="cls-1" x1="1035.08" y1="2.5" x2="1108.15" y2="2.5"/><line class="cls-1" x1="1327.38" y1="2.5" x2="1254.31" y2="2.5"/><line class="cls-1" x1="742.77" y1="2.5" x2="815.85" y2="2.5"/><line class="cls-1" x1="523.54" y1="2.5" x2="596.62" y2="2.5"/><line class="cls-1" x1="596.62" y1="2.5" x2="669.69" y2="2.5"/><line class="cls-1" x1="669.69" y1="2.5" x2="742.77" y2="2.5"/><line class="cls-1" x1="1838.92" y1="2.5" x2="1765.85" y2="2.5"/><line class="cls-1" x1="1765.85" y1="2.5" x2="1692.77" y2="2.5"/><line class="cls-1" x1="1912" y1="2.5" x2="1838.92" y2="2.5"/><line class="cls-1" x1="450.46" y1="2.5" x2="523.54" y2="2.5"/><line class="cls-1" x1="1254.31" y1="2.5" x2="1181.23" y2="2.5"/><line class="cls-1" x1="231.23" y1="2.5" x2="304.31" y2="2.5"/><line class="cls-1" x1="304.31" y1="2.5" x2="377.38" y2="2.5"/><line class="cls-1" x1="377.38" y1="2.5" x2="450.46" y2="2.5"/><line class="cls-1" x1="158.15" y1="2.5" x2="231.23" y2="2.5"/><line class="cls-1" x1="85.08" y1="2.5" x2="158.15" y2="2.5"/><line class="cls-1" x1="12" y1="2.5" x2="85.08" y2="2.5"/><line class="cls-1" x1="1035.08" y1="2.5" x2="962" y2="2.5"/><line class="cls-1" x1="962" y1="2.5" x2="888.92" y2="2.5"/><line class="cls-1" x1="815.85" y1="2.5" x2="888.92" y2="2.5"/><line class="cls-1" x1="1923" y1="802.5" x2="1855.02" y2="802.5"/><line class="cls-1" x1="1557.35" y1="802.5" x2="1855.02" y2="802.5"/><line class="cls-1" x1="366.65" y1="802.5" x2="664.33" y2="802.5"/><line class="cls-1" x1="68.98" y1="802.5" x2="366.65" y2="802.5"/><line class="cls-1" x1="1259.67" y1="802.5" x2="1557.35" y2="802.5"/><line class="cls-1" x1="664.33" y1="802.5" x2="962" y2="802.5"/><line class="cls-1" x1="1259.67" y1="802.5" x2="962" y2="802.5"/><line class="cls-1" x1="1838.92" y1="2.5" x2="1923" y2="27.46"/><line class="cls-1" x1="1765.85" y1="2.5" x2="1923" y2="53.39"/><line class="cls-1" x1="1692.77" y1="2.5" x2="1923" y2="84.51"/><line class="cls-1" x1="1619.69" y1="2.5" x2="1923" y2="122.54"/><line class="cls-1" x1="1546.62" y1="2.5" x2="1923" y2="170.08"/><line class="cls-1" x1="1473.54" y1="2.5" x2="1923" y2="231.21"/><line class="cls-1" x1="1400.46" y1="2.5" x2="1923" y2="312.71"/><line class="cls-1" x1="1327.38" y1="2.5" x2="1923" y2="426.81"/><line class="cls-1" x1="1254.31" y1="2.5" x2="1923" y2="597.96"/><line class="cls-1" x1="1181.23" y1="2.5" x2="1855.02" y2="802.5"/><line class="cls-1" x1="1108.15" y1="2.5" x2="1557.35" y2="802.5"/><line class="cls-1" x1="1035.08" y1="2.5" x2="1259.67" y2="802.5"/><line class="cls-1" x1="962" y1="2.5" x2="962" y2="802.5"/><line class="cls-1" x1="888.92" y1="2.5" x2="664.33" y2="802.5"/><line class="cls-1" x1="815.85" y1="2.5" x2="366.65" y2="802.5"/><line class="cls-1" x1="742.77" y1="2.5" x2="68.98" y2="802.5"/><line class="cls-1" x1="1923" y1="5.51" x2="1912" y2="2.5"/><line class="cls-1" x1="1923" y1="27.46" x2="1923" y2="53.39"/><line class="cls-1" x1="1923" y1="312.71" x2="1923" y2="426.81"/><line class="cls-1" x1="1923" y1="53.39" x2="1923" y2="84.51"/><line class="cls-1" x1="1923" y1="5.51" x2="1923" y2="27.46"/><line class="cls-1" x1="1923" y1="231.21" x2="1923" y2="312.71"/><line class="cls-1" x1="1923" y1="426.81" x2="1923" y2="597.96"/><line class="cls-1" x1="1923" y1="122.54" x2="1923" y2="170.08"/><line class="cls-1" x1="1923" y1="170.08" x2="1923" y2="231.21"/><line class="cls-1" x1="1923" y1="802.5" x2="1923" y2="597.96"/><line class="cls-1" x1="1923" y1="84.51" x2="1923" y2="122.54"/><line class="cls-1" x1="2.5" y1="802.5" x2="68.98" y2="802.5"/><line class="cls-1" x1="2.5" y1="5.1" x2="12" y2="2.5"/><line class="cls-1" x1="669.69" y1="2.5" x2="2.5" y2="596.62"/><line class="cls-1" x1="596.62" y1="2.5" x2="2.5" y2="425.74"/><line class="cls-1" x1="523.54" y1="2.5" x2="2.5" y2="311.82"/><line class="cls-1" x1="450.46" y1="2.5" x2="2.5" y2="230.44"/><line class="cls-1" x1="377.38" y1="2.5" x2="2.5" y2="169.41"/><line class="cls-1" x1="304.31" y1="2.5" x2="2.5" y2="121.95"/><line class="cls-1" x1="231.23" y1="2.5" x2="2.5" y2="83.97"/><line class="cls-1" x1="158.15" y1="2.5" x2="2.5" y2="52.9"/><line class="cls-1" x1="85.08" y1="2.5" x2="2.5" y2="27.01"/><line class="cls-1" x1="2.5" y1="5.1" x2="2.5" y2="27.01"/><line class="cls-1" x1="2.5" y1="311.82" x2="2.5" y2="425.74"/><line class="cls-1" x1="2.5" y1="83.97" x2="2.5" y2="121.95"/><line class="cls-1" x1="2.5" y1="27.01" x2="2.5" y2="52.9"/><line class="cls-1" x1="2.5" y1="802.5" x2="2.5" y2="596.62"/><line class="cls-1" x1="2.5" y1="311.82" x2="2.5" y2="230.44"/><line class="cls-1" x1="2.5" y1="596.62" x2="2.5" y2="425.74"/><line class="cls-1" x1="2.5" y1="169.41" x2="2.5" y2="121.95"/><line class="cls-1" x1="2.5" y1="169.41" x2="2.5" y2="230.44"/><line class="cls-1" x1="2.5" y1="83.97" x2="2.5" y2="52.9"/></g></g></svg>