<?xml version="1.0" encoding="UTF-8"?><svg id="Layer_2" xmlns="http://www.w3.org/2000/svg" viewBox="0 0 1905 1891.5"><defs><style>.cls-1{fill:none;stroke:#7400b8;stroke-miterlimit:10;stroke-width:5px;}</style></defs><g id="Layer_5"><g><line class="cls-1" x1="0" y1="2.5" x2="1905" y2="2.5"/><line class="cls-1" x1="0" y1="52.14" x2="1905" y2="52.14"/><line class="cls-1" x1="0" y1="101.79" x2="1905" y2="101.79"/><line class="cls-1" x1="0" y1="151.43" x2="1905" y2="151.43"/><line class="cls-1" x1="0" y1="201.08" x2="1905" y2="201.08"/><line class="cls-1" x1="0" y1="250.72" x2="1905" y2="250.72"/><line class="cls-1" x1="0" y1="300.37" x2="1905" y2="300.37"/><line class="cls-1" x1="0" y1="350.01" x2="1905" y2="350.01"/><line class="cls-1" y1="399.66" x2="1905" y2="399.66"/><line class="cls-1" x1="0" y1="449.3" x2="1905" y2="449.3"/><line class="cls-1" y1="498.95" x2="1905" y2="498.95"/><line class="cls-1" y1="548.59" x2="1905" y2="548.59"/><line class="cls-1" x1="0" y1="598.24" x2="1905" y2="598.24"/><line class="cls-1" y1="647.88" x2="1905" y2="647.88"/><line class="cls-1" y1="697.53" x2="1905" y2="697.53"/><line class="cls-1" x1="0" y1="747.17" x2="1905" y2="747.17"/><line class="cls-1" y1="796.82" x2="1905" y2="796.82"/><line class="cls-1" y1="846.46" x2="1905" y2="846.46"/><line class="cls-1" y1="896.11" x2="1905" y2="896.11"/><line class="cls-1" y1="945.75" x2="1905" y2="945.75"/><line class="cls-1" y1="995.39" x2="1905" y2="995.39"/><line class="cls-1" y1="1045.04" x2="1905" y2="1045.04"/><line class="cls-1" y1="1094.68" x2="1905" y2="1094.68"/><line class="cls-1" y1="1144.33" x2="1905" y2="1144.33"/><line class="cls-1" x1="0" y1="1193.97" x2="1905" y2="1193.97"/><line class="cls-1" y1="1243.62" x2="1905" y2="1243.62"/><line class="cls-1" y1="1293.26" x2="1905" y2="1293.26"/><line class="cls-1" x1="0" y1="1342.91" x2="1905" y2="1342.91"/><line class="cls-1" y1="1392.55" x2="1905" y2="1392.55"/><line class="cls-1" y1="1442.2" x2="1905" y2="1442.2"/><line class="cls-1" y1="1491.84" x2="1905" y2="1491.84"/><line class="cls-1" y1="1541.49" x2="1905" y2="1541.49"/><line class="cls-1" y1="1591.13" x2="1905" y2="1591.13"/><line class="cls-1" y1="1640.78" x2="1905" y2="1640.78"/><line class="cls-1" y1="1690.42" x2="1905" y2="1690.42"/><line class="cls-1" y1="1740.07" x2="1905" y2="1740.07"/><line class="cls-1" y1="1789.71" x2="1905" y2="1789.71"/><line class="cls-1" y1="1839.36" x2="1905" y2="1839.36"/><line class="cls-1" y1="1889" x2="1905" y2="1889"/></g></g></svg>