<?xml version="1.0" encoding="UTF-8"?><svg id="Layer_2" xmlns="http://www.w3.org/2000/svg" viewBox="0 0 1591 742.88"><g id="Layer_1-2"><g><path d="M0,126.64V0H80.4V126.64c0,29.48,20.1,54.95,60.3,76.38,40.2-21.44,60.3-46.9,60.3-76.38V0h80.4V126.64c0,80.4-46.9,134.01-140.71,160.81C46.9,260.64,0,207.04,0,126.64Z"/><path d="M603.03,281.41h-80.4v-40.2h-100.51v-80.4h100.51v-60.3c0-13.4-6.7-20.1-20.1-20.1h-80.4c-13.4,0-20.1,6.7-20.1,20.1v180.91h-80.4V100.51C321.62,33.5,355.12,0,422.12,0h80.4c67,0,100.51,33.5,100.51,100.51v180.91Z"/><path d="M824.14,201.01h-80.4V120.61h80.4c13.4,0,20.1-6.7,20.1-20.1s-6.7-20.1-20.1-20.1h-100.5v201.01h-80.4V0h180.91c67,0,100.51,33.5,100.51,100.51s-33.5,100.51-100.51,100.51Z"/><path d="M960.03,100.51c0-67,33.5-100.51,100.51-100.51h80.4c67,0,100.51,33.5,100.51,100.51v80.4c0,67.01-33.5,100.51-100.51,100.51h-80.4c-67.01,0-100.51-33.5-100.51-100.51V100.51Zm100.51-20.1c-13.4,0-20.1,6.7-20.1,20.1v80.4c0,13.4,6.7,20.1,20.1,20.1h80.4c13.4,0,20.1-6.7,20.1-20.1V100.51c0-13.4-6.7-20.1-20.1-20.1h-80.4Z"/><path d="M1563.06,100.51c0,51.06-19.43,82.62-58.29,94.68l86.23,86.23h-113.77l-115.18-115.18v115.18h-80.4V0h180.91c67,0,100.51,33.5,100.51,100.51Zm-100.51,20.1c13.4,0,20.1-6.7,20.1-20.1s-6.7-20.1-20.1-20.1h-100.5v40.2h100.5Z"/></g><g><path d="M256.61,619.71v-243.78h102.65v243.78c0,76.98-38.49,115.48-115.48,115.48-25.66,0-47.05-4.27-64.15-12.83-17.11,8.56-38.49,12.83-64.15,12.83-76.98,0-115.48-38.49-115.48-115.48v-243.78H102.65v243.78c0,8.56,4.27,12.83,12.83,12.83s12.83-4.27,12.83-12.83v-243.78h102.64v243.78c0,8.56,4.27,12.83,12.83,12.83s12.83-4.27,12.83-12.83Z"/><path d="M769.84,735.19h-102.65v-51.32h-128.31v-102.65h128.31v-76.98c0-17.11-8.56-25.66-25.66-25.66h-102.64c-17.11,0-25.66,8.56-25.66,25.66v230.95h-102.65v-230.95c0-85.54,42.77-128.31,128.31-128.31h102.64c85.54,0,128.31,42.77,128.31,128.31v230.95Z"/><path d="M821.16,537.59v-161.67h102.65v161.67c0,37.64,25.66,70.14,76.98,97.51,51.32-27.37,76.98-59.87,76.98-97.51v-161.67h102.65v161.67c0,102.65-59.88,171.08-179.63,205.29-119.75-34.21-179.63-102.65-179.63-205.29Z"/><path d="M1591,375.93v102.65h-256.61v153.97h256.61v102.65h-359.26V375.93h359.26Zm0,230.95h-230.95v-102.64h230.95v102.64Z"/></g></g></svg>