<?xml version="1.0" encoding="UTF-8"?><svg id="Layer_2" xmlns="http://www.w3.org/2000/svg" viewBox="0 0 1627.97 737.25"><defs><style>.cls-1{fill:#fff;}</style></defs><g id="Layer_2-2"><g><g><path d="M148.46,301.04C52.6,273.65,4,217.92,4,135.41V4H92.89V135.41c0,27.48,19.06,51.8,56.67,72.3,37.6-20.51,56.67-44.83,56.67-72.3V4h88.89V135.41c0,82.52-48.6,138.24-144.46,165.63l-1.1,.31-1.1-.31Z"/><path class="cls-1" d="M291.12,8v127.41c0,80.89-47.19,134.82-141.56,161.78C55.19,270.23,8,216.3,8,135.41V8H88.89v127.41c0,29.66,20.22,55.28,60.67,76.85,40.45-21.57,60.67-47.19,60.67-76.85V8h80.89M299.12,0h-96.89V135.41c0,13.1-4.4,25.04-13.45,36.5-8.75,11.08-21.94,21.58-39.22,31.23-17.29-9.65-30.47-20.15-39.22-31.23-9.05-11.46-13.45-23.4-13.45-36.5V0H0V135.41c0,84.52,49.58,141.54,147.36,169.48l2.2,.63,2.2-.63c97.78-27.94,147.36-84.96,147.36-169.48V0h0Z"/></g><g><path d="M529.8,295.12v-40.45h-101.12v-88.89h101.12v-56.67c0-11.22-5-16.22-16.22-16.22h-80.89c-11.22,0-16.22,5-16.22,16.22v186.01h-88.89V109.12c0-69.75,35.37-105.12,105.12-105.12h80.89c69.75,0,105.12,35.37,105.12,105.12v186.01h-88.89Z"/><path class="cls-1" d="M513.58,8c67.41,0,101.12,33.71,101.12,101.12v182.01h-80.89v-40.45h-101.12v-80.89h101.12v-60.67c0-13.48-6.74-20.22-20.22-20.22h-80.89c-13.48,0-20.22,6.74-20.22,20.22v182.01h-80.89V109.12c0-67.41,33.7-101.12,101.12-101.12h80.89M513.58,0h-80.89C396.94,0,369.52,9.29,351.19,27.62c-18.33,18.33-27.62,45.75-27.62,81.49v190.01h96.89V109.12c0-9.02,3.2-12.22,12.22-12.22h80.89c9.02,0,12.22,3.2,12.22,12.22v52.67h-101.12v96.89h101.12v40.45h96.89V109.12c0-35.75-9.29-63.16-27.62-81.49C576.74,9.29,549.32,0,513.58,0h0Z"/></g><g><path d="M651.14,295.12V4h186.01c69.75,0,105.12,35.37,105.12,105.12s-35.37,105.12-105.12,105.12h-84.89V125.34h84.89c11.22,0,16.22-5,16.22-16.22s-5-16.22-16.22-16.22h-97.12v202.23h-88.89Z"/><path class="cls-1" d="M837.15,8c67.41,0,101.12,33.71,101.12,101.12s-33.71,101.12-101.12,101.12h-80.89v-80.89h80.89c13.48,0,20.22-6.74,20.22-20.22s-6.74-20.22-20.22-20.22h-101.12v202.23h-80.89V8h182.01M837.15,0h-190.01V299.12h96.89V96.89h93.12c9.02,0,12.22,3.2,12.22,12.22s-3.2,12.22-12.22,12.22h-88.89v96.89h88.89c35.75,0,63.16-9.29,81.49-27.62,18.33-18.33,27.62-45.75,27.62-81.49s-9.29-63.16-27.62-81.49C900.31,9.29,872.89,0,837.15,0h0Z"/></g><g><path d="M1074.97,295.12c-69.75,0-105.12-35.37-105.12-105.11V109.12c0-69.75,35.37-105.12,105.12-105.12h80.89c69.75,0,105.12,35.37,105.12,105.12v80.89c0,69.75-35.37,105.11-105.12,105.11h-80.89Zm0-202.23c-11.22,0-16.22,5-16.22,16.22v80.89c0,11.22,5,16.22,16.22,16.22h80.89c11.22,0,16.22-5,16.22-16.22V109.12c0-11.22-5-16.22-16.22-16.22h-80.89Z"/><path class="cls-1" d="M1155.86,8c67.41,0,101.12,33.71,101.12,101.12v80.89c0,67.41-33.71,101.12-101.12,101.12h-80.89c-67.41,0-101.12-33.7-101.12-101.12V109.12c0-67.41,33.7-101.12,101.12-101.12h80.89m-80.89,202.23h80.89c13.48,0,20.22-6.74,20.22-20.22V109.12c0-13.48-6.74-20.22-20.22-20.22h-80.89c-13.48,0-20.22,6.74-20.22,20.22v80.89c0,13.48,6.74,20.22,20.22,20.22M1155.86,0h-80.89C1039.22,0,1011.8,9.29,993.48,27.62c-18.33,18.33-27.62,45.75-27.62,81.49v80.89c0,35.75,9.29,63.17,27.62,81.49,18.33,18.33,45.75,27.62,81.49,27.62h80.89c35.75,0,63.16-9.29,81.49-27.62,18.33-18.33,27.62-45.75,27.62-81.49V109.12c0-35.75-9.29-63.16-27.62-81.49C1219.03,9.29,1191.61,0,1155.86,0h0Zm-80.89,202.23c-9.02,0-12.22-3.2-12.22-12.22V109.12c0-9.02,3.2-12.22,12.22-12.22h80.89c9.02,0,12.22,3.2,12.22,12.22v80.89c0,9.02-3.2,12.22-12.22,12.22h-80.89Z"/></g><g><path d="M1492.54,295.12l-110.22-110.22v110.22h-88.89V4h186.01c69.75,0,105.12,35.37,105.12,105.12,0,50.34-18.6,82.92-55.3,96.94l89.07,89.06h-125.78Zm-13.11-169.78c11.22,0,16.22-5,16.22-16.22s-5-16.22-16.22-16.22h-97.12v32.45h97.12Z"/><path class="cls-1" d="M1479.43,8c67.41,0,101.12,33.71,101.12,101.12,0,51.37-19.55,83.12-58.65,95.25l86.76,86.76h-114.46l-115.88-115.88v115.88h-80.89V8h182.01m-101.12,121.34h101.12c13.48,0,20.22-6.74,20.22-20.22s-6.74-20.22-20.22-20.22h-101.12v40.45M1479.43,0h-190.01V299.12h96.89v-104.56l102.22,102.22,2.34,2.34h137.09l-13.66-13.66-78.02-78.02c15.54-7.09,27.75-17.74,36.41-31.8,10.52-17.08,15.85-39.47,15.85-66.53,0-35.75-9.29-63.16-27.62-81.49-18.33-18.33-45.75-27.62-81.49-27.62h0Zm-93.12,96.89h93.12c9.02,0,12.22,3.2,12.22,12.22s-3.2,12.22-12.22,12.22h-93.12v-24.45h0Z"/></g><g><path d="M258.99,725.21c-25.36,0-46.99-4.18-64.32-12.41-17.34,8.24-38.96,12.41-64.32,12.41-79.48,0-119.78-40.3-119.78-119.78v-248.42H121.49v248.42c0,6.38,2.49,8.86,8.86,8.86s8.86-2.49,8.86-8.86v-248.42h110.92v248.42c0,6.38,2.49,8.86,8.86,8.86s8.86-2.49,8.86-8.86v-248.42h110.92v248.42c0,79.48-40.3,119.78-119.78,119.78Z"/><path class="cls-1" d="M374.77,361.01v244.42c0,77.19-38.59,115.78-115.78,115.78-25.73,0-47.17-4.29-64.32-12.86-17.15,8.58-38.59,12.86-64.32,12.86-77.19,0-115.78-38.59-115.78-115.78v-244.42H117.49v244.42c0,8.58,4.29,12.86,12.86,12.86s12.86-4.29,12.86-12.86v-244.42h102.92v244.42c0,8.58,4.29,12.86,12.86,12.86s12.86-4.29,12.86-12.86v-244.42h102.92m8-8h-118.92v252.42c0,4.14-.73,4.86-4.86,4.86-2.3,0-3.57-.45-3.99-.87-.42-.42-.87-1.69-.87-3.99v-252.42h-118.92v252.42c0,4.14-.73,4.86-4.86,4.86-2.3,0-3.57-.45-3.99-.87-.42-.42-.87-1.69-.87-3.99v-252.42H6.57v252.42c0,40.61,10.53,71.73,31.29,92.49,20.76,20.76,51.88,31.29,92.49,31.29,25.13,0,46.75-4.04,64.32-12,17.57,7.97,39.18,12,64.32,12,40.61,0,71.73-10.53,92.49-31.29,20.76-20.76,31.29-51.88,31.29-92.49v-252.42h0Z"/></g><g><path d="M679.52,725.21v-51.46h-128.64v-110.92h128.64v-73.19c0-15.03-6.7-21.73-21.73-21.73h-102.92c-15.03,0-21.73,6.7-21.73,21.73v235.56h-110.92v-235.56c0-88.02,44.63-132.64,132.64-132.64h102.92c88.02,0,132.64,44.63,132.64,132.64v235.56h-110.92Z"/><path class="cls-1" d="M657.79,361.01c85.76,0,128.64,42.88,128.64,128.64v231.56h-102.92v-51.46h-128.64v-102.92h128.64v-77.19c0-17.15-8.58-25.73-25.73-25.73h-102.92c-17.15,0-25.73,8.58-25.73,25.73v231.56h-102.92v-231.56c0-85.76,42.88-128.64,128.64-128.64h102.92m0-8h-102.92c-44.88,0-79.25,11.61-102.14,34.5-22.89,22.9-34.5,57.26-34.5,102.14v239.56h118.92v-239.56c0-12.76,4.97-17.73,17.73-17.73h102.92c12.76,0,17.73,4.97,17.73,17.73v69.19h-128.64v118.92h128.64v51.46h118.92v-239.56c0-44.88-11.61-79.24-34.5-102.14-22.9-22.9-57.26-34.5-102.14-34.5h0Z"/></g><g><path d="M1016.9,732.78c-60.51-17.29-106.6-43.66-136.99-78.4-30.53-34.9-46.01-79.06-46.01-131.28v-166.09h110.92v166.09c0,35.51,24.62,66.87,73.19,93.23,48.56-26.35,73.19-57.71,73.19-93.23v-166.09h110.92v166.09c0,52.21-15.48,96.38-46.02,131.28-30.39,34.73-76.48,61.11-136.99,78.4l-1.1,.31-1.1-.31Z"/><path class="cls-1" d="M1198.1,361.01v162.09c0,102.91-60.04,171.53-180.1,205.83-120.07-34.3-180.1-102.92-180.1-205.83v-162.09h102.92v162.09c0,37.74,25.73,70.33,77.19,97.77,51.46-27.44,77.19-60.03,77.19-97.77v-162.09h102.92m8-8h-118.92v170.09c0,17.18-5.75,32.81-17.58,47.79-11.49,14.56-28.84,28.3-51.61,40.88-22.77-12.58-40.12-26.32-51.61-40.88-11.83-14.98-17.58-30.61-17.58-47.79v-170.09h-118.92v170.09c0,53.21,15.81,98.27,47,133.91,15.53,17.74,35.15,33.46,58.33,46.7,22.97,13.12,50.07,24.19,80.57,32.91l2.2,.63,2.2-.63c30.49-8.71,57.6-19.78,80.56-32.91,23.18-13.25,42.81-28.96,58.33-46.7,31.19-35.65,47.01-80.7,47.01-133.91v-170.09h0Z"/></g><g><path d="M1245.55,725.21V357.01h368.2v110.92h-257.29v146.37h257.29v110.92h-368.2Zm128.64-128.64v-110.92h239.56v110.92h-239.56Z"/><path class="cls-1" d="M1609.76,361.01v102.92h-257.29v154.37h257.29v102.92h-360.2V361.01h360.2m0,128.64v102.92h-231.56v-102.92h231.56m8-136.64h-376.2v376.2h376.2v-118.92h-257.29v-138.37h257.29v-118.92h0Zm0,128.64h-247.56v118.92h247.56v-118.92h0Z"/></g></g></g></svg>